<?xml version="1.0" encoding="UTF-8" standalone="no"?>
<!DOCTYPE svg PUBLIC "-//W3C//DTD SVG 1.1//EN" "http://www.w3.org/Graphics/SVG/1.1/DTD/svg11.dtd">
<svg version="1.1" xmlns="http://www.w3.org/2000/svg" xmlns:xlink="http://www.w3.org/1999/xlink" preserveAspectRatio="xMidYMid meet" viewBox="0 0 640 640" width="900" height="900"><defs><path d="M351.88 728.33C351.88 838.72 262.27 928.33 151.88 928.33C41.5 928.33 -48.12 838.72 -48.12 728.33C-48.12 617.95 41.5 528.33 151.88 528.33C262.27 528.33 351.88 617.95 351.88 728.33Z" id="b2iuyixqS"></path><path d="M469.86 614.42C469.86 724.8 380.24 814.42 269.86 814.42C159.47 814.42 69.86 724.8 69.86 614.42C69.86 504.04 159.47 414.42 269.86 414.42C380.24 414.42 469.86 504.04 469.86 614.42Z" id="c2OkRmifUr"></path><path d="M646.52 522.97C646.52 633.35 556.9 722.97 446.52 722.97C336.14 722.97 246.52 633.35 246.52 522.97C246.52 412.59 336.14 322.97 446.52 322.97C556.9 322.97 646.52 412.59 646.52 522.97Z" id="b25Ie6IUzz"></path><path d="M834.06 537.32C834.06 647.7 744.44 737.32 634.06 737.32C523.67 737.32 434.06 647.7 434.06 537.32C434.06 426.94 523.67 337.32 634.06 337.32C744.44 337.32 834.06 426.94 834.06 537.32Z" id="a54lZC30IE"></path></defs><g><g><g><use xlink:href="#b2iuyixqS" opacity="1" fill="#ffffff" fill-opacity="1"></use></g><g><use xlink:href="#c2OkRmifUr" opacity="1" fill="#ffffff" fill-opacity="1"></use></g><g><use xlink:href="#b25Ie6IUzz" opacity="1" fill="#ffffff" fill-opacity="1"></use></g><g><use xlink:href="#a54lZC30IE" opacity="1" fill="#ffffff" fill-opacity="1"></use></g></g></g></svg>