<svg xmlns="http://www.w3.org/2000/svg" xmlns:xlink="http://www.w3.org/1999/xlink" width="1441.003" height="607.153" viewBox="0 0 1441.003 607.153"><defs><style>.a{stroke:rgba(0,0,0,0);fill:url(#a);}</style><linearGradient id="a" x1="0.5" x2="0.5" y2="0.72" gradientUnits="objectBoundingBox"><stop offset="0" stop-color="#44434b"/><stop offset="1" stop-color="#0b0a0d"/></linearGradient></defs><path class="a" d="M4318.917,2435.061c-.067-.841.315-1.452,1.216-1.464a1.287,1.287,0,0,1,.09,2.555h-.009A1.132,1.132,0,0,1,4318.917,2435.061Zm-956.044,0c-.067-.841.314-1.452,1.216-1.464a1.287,1.287,0,0,1,.088,2.555h-.008A1.132,1.132,0,0,1,3362.873,2435.061Zm513.04-.307a1.3,1.3,0,0,1-1.156-1.347c.016-.8.637-1.019,1.233-1.1.828.171,1.269.6,1.195,1.359-.064.63-.375,1.118-1.008,1.118A1.473,1.473,0,0,1,3875.912,2434.754Zm581.945-1.972a1.559,1.559,0,0,1-1.546-1.656,1.669,1.669,0,0,1,1.674-1.8c1.111.165,1.8.729,1.738,1.836a1.579,1.579,0,0,1-1.682,1.624Q4457.952,2432.789,4457.857,2432.782Zm-956.044,0a1.557,1.557,0,0,1-1.547-1.656,1.669,1.669,0,0,1,1.672-1.8c1.112.165,1.807.729,1.74,1.836a1.58,1.58,0,0,1-1.682,1.624C3501.937,2432.789,3501.876,2432.787,3501.814,2432.782Zm180.073-2.941a2.018,2.018,0,0,1,2.225-2.25,1.968,1.968,0,0,1,2.118,2.073,2.121,2.121,0,0,1-2.2,2.3C3682.766,2431.781,3681.91,2431.161,3681.887,2429.841Zm426.879-.767a1.458,1.458,0,0,1,1.5-1.661,1.432,1.432,0,0,1,1.638,1.5,1.54,1.54,0,0,1-1.345,1.7C4109.431,2430.565,4108.831,2430.058,4108.766,2429.074Zm-280.308.922a1.087,1.087,0,0,1-1.048-1.325,1.123,1.123,0,0,1,1.206-.907,1.224,1.224,0,0,1,1.241,1.056c-.194.777-.57,1.189-1.2,1.189A1.607,1.607,0,0,1,3828.458,2430Zm532.021-5.187a1.531,1.531,0,0,1-1.428-1.769,1.662,1.662,0,0,1,1.566-1.541c1.1.173,1.733.7,1.706,1.686a1.516,1.516,0,0,1-1.577,1.639A2.362,2.362,0,0,1,4360.479,2424.81Zm-956.045,0a1.531,1.531,0,0,1-1.427-1.769,1.661,1.661,0,0,1,1.567-1.541c1.1.173,1.733.7,1.7,1.686a1.515,1.515,0,0,1-1.577,1.639A2.355,2.355,0,0,1,3404.434,2424.81Zm1167.278-1.941a1.37,1.37,0,0,1,1.318-1.5,1.422,1.422,0,0,1,1.713,1.372,1.519,1.519,0,1,1-3.031.125Zm-956.045,0a1.369,1.369,0,0,1,1.318-1.5,1.424,1.424,0,0,1,1.714,1.372,1.463,1.463,0,0,1-1.447,1.659A1.448,1.448,0,0,1,3615.668,2422.869Zm492.775-1.3a1.541,1.541,0,0,1,1.826-1.654,1.518,1.518,0,0,1,1.449,1.751,1.6,1.6,0,0,1-1.69,1.547C4109.071,2423.07,4108.428,2422.551,4108.442,2421.564Zm24.638-.48a1.661,1.661,0,0,1,.171-2.67c.854-.677,1.924-1.294,2.561.353h0q.009,1.069.017,2.136c-.347.815-.755,1.1-1.176,1.1A2.716,2.716,0,0,1,4133.08,2421.084Zm-956.044,0a1.661,1.661,0,0,1,.169-2.67c.854-.677,1.926-1.294,2.563.353q.01,1.069.017,2.136h0c-.346.814-.753,1.1-1.174,1.1A2.717,2.717,0,0,1,3177.036,2421.084Zm462.971-.75a1.564,1.564,0,1,1,3.125-.137c.065,1.016-.544,1.512-1.488,1.681C3640.716,2421.766,3640.021,2421.359,3640.007,2420.334Zm644.469.13a1.276,1.276,0,0,1,1.38-1.417,1.382,1.382,0,0,1,1.466,1.268c-.1.974-.577,1.519-1.437,1.547h-.063A1.287,1.287,0,0,1,4284.476,2420.464Zm-956.044,0a1.275,1.275,0,0,1,1.379-1.417,1.38,1.38,0,0,1,1.466,1.268c-.1.974-.575,1.519-1.437,1.547h-.063A1.286,1.286,0,0,1,3328.431,2420.464Zm975.8-.877c0-1.165.729-1.684,1.818-1.652a1.636,1.636,0,0,1,1.578,1.517c-.137,1.087-.6,1.785-1.586,1.819l-.1,0A1.559,1.559,0,0,1,4304.232,2419.587Zm-956.044,0c-.006-1.165.729-1.684,1.818-1.652a1.635,1.635,0,0,1,1.578,1.517c-.137,1.087-.6,1.785-1.587,1.819l-.1,0A1.558,1.558,0,0,1,3348.188,2419.587Zm907.013-.1a1.376,1.376,0,1,1,.255-2.74,1.342,1.342,0,0,1,1.28,1.439c-.153.848-.617,1.31-1.354,1.31C4255.323,2419.5,4255.262,2419.494,4255.2,2419.488Zm-956.046,0a1.376,1.376,0,1,1,.255-2.74,1.344,1.344,0,0,1,1.281,1.439c-.153.848-.617,1.31-1.355,1.31Q3299.249,2419.5,3299.156,2419.488Zm605.116-3.956a1.336,1.336,0,0,1,1.405-1.643,1.438,1.438,0,0,1,1.464,1.313,1.471,1.471,0,0,1-1.337,1.565,1.9,1.9,0,0,1-.213.013A1.281,1.281,0,0,1,3904.272,2415.533Zm346.317.793a1.247,1.247,0,0,1-1.326-1.45,1.211,1.211,0,0,1,1.565-1.157,1.241,1.241,0,0,1,1.065,1.407,1.261,1.261,0,0,1-1.25,1.2Zm-956.046,0a1.246,1.246,0,0,1-1.325-1.45,1.211,1.211,0,0,1,1.565-1.157,1.241,1.241,0,0,1,1.064,1.407,1.26,1.26,0,0,1-1.249,1.2Zm1054.1-3.706a1.2,1.2,0,0,1-1.208-1.229,1.256,1.256,0,0,1,1.322-1.409c.875-.022,1.286.543,1.341,1.425a1.23,1.23,0,0,1-1.276,1.22Q4348.741,2412.628,4348.648,2412.62Zm-956.044,0a1.2,1.2,0,0,1-1.208-1.229,1.255,1.255,0,0,1,1.323-1.409c.874-.022,1.285.543,1.339,1.425a1.228,1.228,0,0,1-1.274,1.22C3392.725,2412.628,3392.666,2412.625,3392.6,2412.62Zm858.455-2.124a1.342,1.342,0,0,1-1.447-1.339,1.466,1.466,0,1,1,2.911.017,1.338,1.338,0,0,1-1.448,1.322Zm-956.045,0a1.343,1.343,0,0,1-1.448-1.339,1.467,1.467,0,1,1,2.912.017,1.338,1.338,0,0,1-1.447,1.322Zm943.773-.109a1.79,1.79,0,0,1-1.98-1.868,1.854,1.854,0,0,1,2.1-2.049c1.224.042,1.748.883,1.871,2.053a1.867,1.867,0,0,1-1.958,1.865Zm-956.045,0a1.79,1.79,0,0,1-1.981-1.868,1.855,1.855,0,0,1,2.1-2.049c1.224.042,1.746.883,1.869,2.053a1.866,1.866,0,0,1-1.957,1.865Zm1016.556-2.12c-.129-1.024.522-1.524,1.424-1.734,1.019.052,1.654.53,1.669,1.544a1.446,1.446,0,0,1-1.313,1.572,2.128,2.128,0,0,1-.275.018A1.449,1.449,0,0,1,4299.3,2408.267Zm-956.045,0c-.129-1.024.522-1.524,1.424-1.734,1.018.052,1.652.53,1.668,1.544a1.443,1.443,0,0,1-1.312,1.572,2.12,2.12,0,0,1-.276.018A1.447,1.447,0,0,1,3343.253,2408.267Zm597.636-2.84a1.141,1.141,0,0,1,1.036-1.374,1.167,1.167,0,0,1,1.433,1.261,1.236,1.236,0,0,1-2.469.113ZM3904,2406.563a1.435,1.435,0,0,1-1.476-1.669,1.477,1.477,0,0,1,1.667-1.5,1.521,1.521,0,0,1,1.506,1.506c-.122,1.127-.678,1.664-1.561,1.664C3904.1,2406.567,3904.051,2406.565,3904,2406.563Zm641.942-.5a1.244,1.244,0,0,1-1.207-1.3,1.3,1.3,0,0,1,1.267-1.448c.959.119,1.522.561,1.455,1.465a1.272,1.272,0,0,1-1.358,1.293C4546.053,2406.07,4546,2406.069,4545.947,2406.065Zm-956.044,0a1.243,1.243,0,0,1-1.207-1.3,1.3,1.3,0,0,1,1.267-1.448c.958.119,1.522.561,1.454,1.465a1.27,1.27,0,0,1-1.357,1.293C3590.01,2406.07,3589.956,2406.069,3589.9,2406.065Zm670.586-6.479a1.585,1.585,0,0,1,1.579-1.649,1.659,1.659,0,0,1,1.877,1.636c-.077,1.1-.625,1.791-1.744,1.794h-.006A1.58,1.58,0,0,1,4260.489,2399.586Zm-956.045,0a1.584,1.584,0,0,1,1.579-1.649,1.658,1.658,0,0,1,1.876,1.636c-.077,1.1-.625,1.791-1.743,1.794h-.006A1.58,1.58,0,0,1,3304.444,2399.586Zm769.98-.793a1.151,1.151,0,0,1,1.12-1.341,1.14,1.14,0,0,1,1.3,1.156,1.215,1.215,0,0,1-1.137,1.365A1.2,1.2,0,0,1,4074.424,2398.793Zm27.494-1.59a1.97,1.97,0,0,1-.664-2.892c.765-1.115,1.871-1.844,3.084-.366v0h0c1.688.677,1.235,1.841.506,2.85a1.911,1.911,0,0,1-1.563.884A2.431,2.431,0,0,1,4101.918,2397.2Zm352.237-2.473a1.121,1.121,0,0,1-1.075-1.342,1.189,1.189,0,0,1,1.286-1.146,1.254,1.254,0,0,1-.077,2.494C4454.247,2394.735,4454.2,2394.733,4454.156,2394.729Zm-956.047,0a1.12,1.12,0,0,1-1.074-1.342,1.19,1.19,0,0,1,1.286-1.146,1.253,1.253,0,0,1-.078,2.494C3498.2,2394.735,3498.155,2394.733,3498.109,2394.729Zm541.067-1.1a1.312,1.312,0,0,1-1.341-1.479c.048-.9.651-1.277,1.487-1.361.834.165,1.392.617,1.338,1.511a1.3,1.3,0,0,1-1.366,1.332C4039.256,2393.633,4039.217,2393.632,4039.177,2393.629Zm19.738-2.434a1.739,1.739,0,0,1,3.477.1,1.739,1.739,0,1,1-3.477-.1Zm-96.826-1.019a1.359,1.359,0,0,1,1.384-1.439,1.375,1.375,0,0,1,1.562,1.244c.145.992-.41,1.543-1.359,1.734A1.449,1.449,0,0,1,3962.089,2390.176Zm-22.287-1.334a1.236,1.236,0,0,1-1.289-1.177,1.249,1.249,0,0,1,1.221-1.5c.879-.089,1.319.471,1.443,1.309-.065.842-.494,1.373-1.354,1.373Zm-272.213-3.048a1.509,1.509,0,0,1,1.594-1.565c1.164-.032,1.575.742,1.741,1.6-.155,1.106-.707,1.7-1.653,1.709h-.023A1.521,1.521,0,0,1,3667.588,2385.794Zm747.79-.472a1.24,1.24,0,0,1-1.2-1.29,1.308,1.308,0,0,1,1.357-1.425c.856.109,1.4.579,1.342,1.45a1.249,1.249,0,0,1-1.325,1.273C4415.493,2385.329,4415.436,2385.327,4415.377,2385.322Zm-956.046,0a1.24,1.24,0,0,1-1.2-1.29,1.309,1.309,0,0,1,1.357-1.425c.856.109,1.4.579,1.342,1.45a1.249,1.249,0,0,1-1.326,1.273C3459.448,2385.329,3459.39,2385.327,3459.331,2385.322Zm1106.517-2.851a1.4,1.4,0,0,1-1.257-1.57,1.524,1.524,0,1,1,3.028.259,1.39,1.39,0,0,1-1.422,1.342A2.126,2.126,0,0,1,4565.848,2382.47Zm-956.046,0a1.4,1.4,0,0,1-1.255-1.57,1.524,1.524,0,1,1,3.029.259,1.392,1.392,0,0,1-1.423,1.342A2.14,2.14,0,0,1,3609.8,2382.47Zm718.526-.99a1.5,1.5,0,1,1,.52-2.947,1.483,1.483,0,0,1,1.286,1.5c-.207.935-.689,1.476-1.479,1.476A1.978,1.978,0,0,1,4328.328,2381.48Zm-956.045,0a1.5,1.5,0,1,1,.52-2.947,1.485,1.485,0,0,1,1.287,1.5c-.208.935-.691,1.476-1.481,1.476A1.982,1.982,0,0,1,3372.283,2381.48Zm378.781-6.692c-.022-.9.549-1.325,1.375-1.474.85.091,1.421.511,1.45,1.4a1.307,1.307,0,0,1-1.377,1.441h-.056A1.3,1.3,0,0,1,3751.064,2374.788Zm671.23-.487a1.424,1.424,0,0,1,1.607-1.515,1.466,1.466,0,0,1,1.529,1.615c-.025,1-.678,1.451-1.618,1.544A1.514,1.514,0,0,1,4422.294,2374.3Zm-956.045,0a1.423,1.423,0,0,1,1.607-1.515,1.466,1.466,0,0,1,1.529,1.615c-.026,1-.678,1.451-1.619,1.544A1.514,1.514,0,0,1,3466.25,2374.3Zm994.139,1.073a1.094,1.094,0,0,1-1.109-1.279,1.178,1.178,0,0,1,1.186-1.162c.792.1,1.337.434,1.353,1.188a1.152,1.152,0,0,1-1.3,1.256C4460.475,2375.378,4460.432,2375.377,4460.389,2375.375Zm-956.046,0a1.093,1.093,0,0,1-1.107-1.279,1.178,1.178,0,0,1,1.186-1.162c.791.1,1.335.434,1.35,1.188a1.15,1.15,0,0,1-1.3,1.256C3504.429,2375.378,3504.386,2375.377,3504.342,2375.375Zm508.838-.085a1.453,1.453,0,0,1-1.478-1.679,1.374,1.374,0,0,1,1.458-1.4,1.535,1.535,0,0,1,1.667,1.411c-.133,1.044-.6,1.667-1.542,1.667Zm307.451-1.73a1.5,1.5,0,0,1,1.665-1.767,1.459,1.459,0,0,1,1.575,1.581,1.548,1.548,0,0,1-1.527,1.667C4321.4,2374.976,4320.716,2374.552,4320.631,2373.559Zm-956.044,0a1.5,1.5,0,0,1,1.665-1.767,1.459,1.459,0,0,1,1.575,1.581,1.549,1.549,0,0,1-1.527,1.667C3365.357,2374.976,3364.671,2374.552,3364.587,2373.559Zm1214.691.141a1.5,1.5,0,0,1-1.63-1.542,1.585,1.585,0,0,1,1.7-1.778c.98-.02,1.481.626,1.654,1.561a1.62,1.62,0,0,1-1.715,1.759Zm-956.044,0a1.5,1.5,0,0,1-1.631-1.542,1.585,1.585,0,0,1,1.7-1.778c.979-.02,1.48.626,1.654,1.561a1.621,1.621,0,0,1-1.716,1.759Zm661.323-3.854a1.378,1.378,0,0,1-1.479-1.362c-.076-1.017.545-1.509,1.511-1.638a1.461,1.461,0,0,1,1.462,1.671,1.342,1.342,0,0,1-1.456,1.33Zm-956.045,0a1.379,1.379,0,0,1-1.479-1.362c-.074-1.017.546-1.509,1.512-1.638a1.462,1.462,0,0,1,1.462,1.671,1.342,1.342,0,0,1-1.456,1.33Zm874.4-.231a1.405,1.405,0,0,1-1.387-1.7,1.423,1.423,0,0,1,1.437-1.281c1.072.189,1.632.729,1.5,1.725a1.347,1.347,0,0,1-1.4,1.264C4203.01,2369.62,4202.961,2369.619,4202.912,2369.615Zm-956.045,0a1.4,1.4,0,0,1-1.386-1.7,1.422,1.422,0,0,1,1.437-1.281c1.072.189,1.632.729,1.5,1.725a1.348,1.348,0,0,1-1.4,1.264C3246.966,2369.62,3246.917,2369.619,3246.867,2369.615Zm1092.158-.013c-.713-.028-1.288-.422-1.228-1.2a1.317,1.317,0,0,1,1.473-1.317c.8.045.986.692,1.09,1.233-.146.847-.568,1.284-1.264,1.284Zm-956.046,0c-.711-.028-1.286-.422-1.229-1.2a1.318,1.318,0,0,1,1.475-1.317c.8.045.986.692,1.09,1.233-.146.847-.568,1.284-1.265,1.284Zm391.641-3.833a1.944,1.944,0,0,1,3.886.122c-.039,1.2-.81,1.834-2.079,1.918A1.871,1.871,0,0,1,3774.62,2365.769Zm761.741,1.072a1.612,1.612,0,0,1-1.657-1.817,1.591,1.591,0,0,1,1.812-1.65,1.735,1.735,0,0,1-.028,3.47C4536.446,2366.844,4536.4,2366.843,4536.361,2366.841Zm-956.045,0a1.611,1.611,0,0,1-1.657-1.817,1.59,1.59,0,0,1,1.812-1.65,1.735,1.735,0,0,1-.028,3.47C3580.4,2366.844,3580.359,2366.843,3580.317,2366.841Zm715.443-1.453c.129-.827.547-1.384,1.455-1.32a1.254,1.254,0,0,1,1.271,1.231,1.3,1.3,0,0,1-1.316,1.478c-.039,0-.078,0-.115,0C4296.245,2366.781,4295.854,2366.2,4295.76,2365.387Zm-956.045,0c.13-.827.548-1.384,1.455-1.32a1.252,1.252,0,0,1,1.27,1.231,1.3,1.3,0,0,1-1.315,1.478c-.039,0-.077,0-.115,0C3340.2,2366.781,3339.808,2366.2,3339.715,2365.387Zm713.307.868a1.87,1.87,0,0,1-1.935-2.218,1.978,1.978,0,0,1,1.941-1.841c1.317.17,2.065.806,2.083,1.994a1.843,1.843,0,0,1-1.974,2.067Zm363.787-1.084a1.1,1.1,0,0,1-1.206-1.186,1.159,1.159,0,0,1,1.263-1.155,1.14,1.14,0,0,1,1.228,1.019c-.117.892-.555,1.322-1.26,1.322Zm-956.046,0a1.094,1.094,0,0,1-1.2-1.186,1.159,1.159,0,0,1,1.262-1.155,1.141,1.141,0,0,1,1.229,1.019c-.117.892-.556,1.322-1.261,1.322Zm1011.143-2.869a1.569,1.569,0,0,1,1.58-1.577,1.548,1.548,0,0,1,1.621,1.544,1.471,1.471,0,0,1-1.444,1.683c-.057,0-.113.006-.168.006A1.486,1.486,0,0,1,4471.906,2362.3Zm-956.045,0a1.568,1.568,0,0,1,1.581-1.577,1.547,1.547,0,0,1,1.62,1.544,1.471,1.471,0,0,1-1.444,1.683c-.058,0-.115.006-.17.006A1.486,1.486,0,0,1,3515.861,2362.3Zm752.7-.3a1.241,1.241,0,0,1,1.225-1.484,1.28,1.28,0,0,1,1.516,1.167c-.013.867-.363,1.47-1.235,1.545-.06.006-.118.008-.175.008A1.261,1.261,0,0,1,4268.561,2362Zm-956.045,0a1.242,1.242,0,0,1,1.226-1.484,1.281,1.281,0,0,1,1.515,1.167c-.013.867-.365,1.47-1.235,1.545-.059.006-.118.008-.175.008A1.262,1.262,0,0,1,3312.515,2362Zm653.794-.239c-.35-.009-.7-.018-1.05-.028-1.47.123-1.412-.945-1.279-1.836a1.819,1.819,0,0,1,3.556-.05c.158.886.2,1.914-1.18,1.914Zm228.171-2.208a1.5,1.5,0,0,1,.382-2.654c1-.535,2.148-.655,2.373,1h0a0,0,0,0,1,0,0c-.016,1.43-.671,1.791-1.543,1.791A6.961,6.961,0,0,1,4194.48,2359.554Zm-956.045,0a1.5,1.5,0,0,1,.382-2.654c1-.535,2.148-.655,2.373,1h0v0c-.017,1.43-.672,1.791-1.544,1.791A6.956,6.956,0,0,1,3238.435,2359.554Zm1039.725-.756a2.088,2.088,0,0,1-2-2.529,2.025,2.025,0,0,1,2.3-1.936,2.241,2.241,0,0,1,0,4.481C4278.368,2358.813,4278.267,2358.808,4278.161,2358.8Zm-956.045,0a2.087,2.087,0,0,1-2-2.529,2.025,2.025,0,0,1,2.3-1.936,2.241,2.241,0,0,1,0,4.481C3322.324,2358.813,3322.222,2358.808,3322.116,2358.8Zm796.052-.366a2.157,2.157,0,0,1-2.3-2.316c-.023-1.559.914-2.375,2.5-2.5a2.336,2.336,0,0,1,2.274,2.374,2.224,2.224,0,0,1-2.438,2.442Zm-956.046,0a2.158,2.158,0,0,1-2.3-2.316c-.024-1.559.915-2.375,2.5-2.5a2.332,2.332,0,0,1,2.272,2.374,2.223,2.223,0,0,1-2.437,2.442Zm864.5-1.867a1.571,1.571,0,0,1,1.834-1.613,1.546,1.546,0,0,1,1.55,1.625,1.7,1.7,0,1,1-3.384-.013ZM4182.9,2355a1.445,1.445,0,0,1,1.481-1.64,1.563,1.563,0,1,1,.149,3.123q-.073,0-.142,0A1.409,1.409,0,0,1,4182.9,2355Zm-956.044,0a1.444,1.444,0,0,1,1.48-1.64,1.563,1.563,0,1,1,.149,3.123q-.073,0-.142,0A1.408,1.408,0,0,1,3226.859,2355Zm625.836-.678c-.131-1.235.646-1.839,1.686-2.1,1.284.077,2.036.688,2.078,1.888a1.731,1.731,0,0,1-1.641,1.912,2.776,2.776,0,0,1-.294.016A1.737,1.737,0,0,1,3852.7,2354.326Zm665.86-.091a1.351,1.351,0,0,1,1.6-1.443,1.284,1.284,0,0,1,1.234,1.5,1.352,1.352,0,0,1-1.431,1.344C4519.139,2355.517,4518.55,2355.083,4518.555,2354.235Zm-956.045,0a1.352,1.352,0,0,1,1.6-1.443,1.286,1.286,0,0,1,1.235,1.5,1.354,1.354,0,0,1-1.433,1.344C3563.094,2355.517,3562.506,2355.083,3562.51,2354.235Zm455.132-7.966c-.133-1.01.492-1.528,1.441-1.707a1.436,1.436,0,0,1,1.525,1.331,1.418,1.418,0,0,1-1.433,1.691c-.043,0-.086,0-.129,0A1.384,1.384,0,0,1,4017.643,2346.269Zm-377.573-1.133a1.258,1.258,0,0,1,1.326-1.439,1.3,1.3,0,0,1,1.456,1.331,1.393,1.393,0,1,1-2.782.108Zm564.912.84a1.382,1.382,0,1,1,.072-2.764c.883,0,1.266.6,1.36,1.416-.11.811-.546,1.35-1.346,1.35Zm-956.044,0a1.382,1.382,0,1,1,.072-2.764c.883,0,1.264.6,1.359,1.416-.11.811-.546,1.35-1.345,1.35Zm1155.027-.8a1.341,1.341,0,0,1-1.194-1.509,1.294,1.294,0,0,1,1.417-1.352,1.361,1.361,0,0,1,1.416,1.644,1.381,1.381,0,0,1-1.539,1.219Zm-956.046,0a1.341,1.341,0,0,1-1.193-1.509,1.293,1.293,0,0,1,1.416-1.352,1.361,1.361,0,0,1,1.417,1.644,1.38,1.38,0,0,1-1.539,1.219Zm554.152-7.563a1.444,1.444,0,0,1,1.621-1.488,1.558,1.558,0,0,1,1.595,1.42c-.074,1.1-.573,1.714-1.526,1.768-.047,0-.093,0-.139,0A1.481,1.481,0,0,1,4002.07,2337.613Zm409.611,1.518a1.222,1.222,0,0,1-1.275-1.492,1.171,1.171,0,0,1,1.388-1.078,1.25,1.25,0,0,1,1.177,1.331c-.119.722-.531,1.24-1.244,1.24Zm-956.045,0a1.223,1.223,0,0,1-1.276-1.492,1.172,1.172,0,0,1,1.389-1.078,1.248,1.248,0,0,1,1.176,1.331c-.118.722-.53,1.24-1.242,1.24Zm572.8-.08a1.146,1.146,0,0,1-1.169-1.488,1.117,1.117,0,0,1,1.385-1,1.172,1.172,0,0,1,1.108,1.316,1.318,1.318,0,0,1-1.3,1.175Zm-144.291-1.787a1.4,1.4,0,0,1,1.4-1.462,1.34,1.34,0,0,1,1.5,1.316,1.324,1.324,0,0,1-1.223,1.578,2.366,2.366,0,0,1-.242.013A1.345,1.345,0,0,1,3884.148,2337.264Zm5.249-3.017a1.478,1.478,0,0,1,1.417-1.7,1.456,1.456,0,0,1,1.5,1.577,1.34,1.34,0,0,1-1.408,1.378l-.1,0A1.309,1.309,0,0,1,3889.4,2334.247Zm39.338-1c-.128-.956.451-1.53,1.41-1.728a1.5,1.5,0,0,1,1.623,1.492,1.4,1.4,0,0,1-1.264,1.551,2.065,2.065,0,0,1-.322.026A1.41,1.41,0,0,1,3928.735,2333.25Zm479.716-.6a1.207,1.207,0,0,1,1.258-1.148,1.234,1.234,0,0,1,1.183,1.294,1.136,1.136,0,0,1-1.164,1.252h-.018A1.164,1.164,0,0,1,4408.45,2332.651Zm-956.044,0a1.206,1.206,0,0,1,1.259-1.148,1.232,1.232,0,0,1,1.181,1.294,1.134,1.134,0,0,1-1.162,1.252h-.019A1.164,1.164,0,0,1,3452.406,2332.651Zm201.865-.721c-.088-1,.479-1.517,1.439-1.673a1.441,1.441,0,0,1,1.475,1.61,1.3,1.3,0,0,1-1.416,1.355A1.356,1.356,0,0,1,3654.271,2331.929Zm774.825-2.016a1.2,1.2,0,0,1-1.153-1.344,1.112,1.112,0,0,1,1.344-1.1,1.225,1.225,0,0,1-.047,2.449C4429.192,2329.919,4429.146,2329.917,4429.1,2329.914Zm-956.044,0a1.2,1.2,0,0,1-1.153-1.344,1.11,1.11,0,0,1,1.343-1.1,1.225,1.225,0,0,1-.047,2.449C3473.148,2329.919,3473.1,2329.917,3473.052,2329.914Zm169.78-3.364a1.278,1.278,0,0,1,1.417-1.368,1.4,1.4,0,1,1-.064,2.8A1.275,1.275,0,0,1,3642.831,2326.55Zm61.242-.643a1.793,1.793,0,1,1,.085-3.582,1.766,1.766,0,0,1,1.732,1.806c-.159,1.073-.692,1.776-1.8,1.776Zm50.952-.177a1.25,1.25,0,1,1,.481-2.451,1.369,1.369,0,0,1,1.01,1.349c-.231.75-.644,1.121-1.246,1.121A1.654,1.654,0,0,1,3755.025,2325.729Zm367.443-2.87c-.016-.983.588-1.487,1.559-1.583a1.5,1.5,0,0,1,1.469,1.655,1.357,1.357,0,0,1-1.405,1.407h-.072A1.4,1.4,0,0,1,4122.468,2322.859Zm248.783.68a1.333,1.333,0,0,1-1.211-1.588,1.254,1.254,0,0,1,1.354-1.168,1.286,1.286,0,0,1,1.373,1.44,1.319,1.319,0,0,1-1.482,1.316Zm-956.046,0a1.331,1.331,0,0,1-1.21-1.588,1.253,1.253,0,0,1,1.351-1.168,1.287,1.287,0,0,1,1.375,1.44,1.321,1.321,0,0,1-1.483,1.316Zm252.484-.766a1.126,1.126,0,0,1-1.094-1.316,1.105,1.105,0,0,1,1.256-1.152,1.2,1.2,0,0,1,1.12,1.343c-.118.664-.484,1.129-1.168,1.129C3667.766,2322.777,3667.728,2322.776,3667.689,2322.773Zm427.4-3.455a1.353,1.353,0,0,1,1.306-1.506,1.332,1.332,0,0,1,1.449,1.321,1.294,1.294,0,0,1-1.284,1.486q-.077.006-.149.006A1.276,1.276,0,0,1,4095.089,2319.318Zm328.394-.4a1.1,1.1,0,0,1,1.345-1.031,1.069,1.069,0,0,1,1.059,1.052c.028.788-.5,1.108-1.214,1.2C4423.963,2320.037,4423.411,2319.7,4423.482,2318.923Zm-956.045,0a1.1,1.1,0,0,1,1.346-1.031,1.067,1.067,0,0,1,1.057,1.052c.027.788-.5,1.108-1.213,1.2C3467.919,2320.037,3467.367,2319.7,3467.437,2318.923Zm180.166-1.464a1.374,1.374,0,0,1,1.37-1.452,1.342,1.342,0,0,1,1.578,1.206,1.472,1.472,0,0,1-1.351,1.764C3648.257,2318.91,3647.606,2318.453,3647.6,2317.459Zm49.524.073a1.119,1.119,0,0,1,1.186-1.261,1.173,1.173,0,0,1,1.308,1.123,1.47,1.47,0,0,1-1.269,1.344,1.372,1.372,0,0,1-.164.01C3697.5,2318.749,3697.156,2318.2,3697.128,2317.532Zm630.313-.8c-.042-.878.409-1.44,1.335-1.379a1.292,1.292,0,0,1,1.219,1.335,1.2,1.2,0,0,1-1.25,1.193h-.072A1.133,1.133,0,0,1,4327.44,2316.734Zm-956.044,0c-.043-.878.409-1.44,1.335-1.379a1.293,1.293,0,0,1,1.219,1.335,1.2,1.2,0,0,1-1.25,1.193h-.072A1.133,1.133,0,0,1,3371.4,2316.734Zm403.428-2a1.367,1.367,0,0,1-1.316-1.525,1.444,1.444,0,0,1,1.606-1.545c1.027.04,1.408.761,1.5,1.588-.177,1-.694,1.5-1.515,1.5A2.349,2.349,0,0,1,3774.824,2314.731Zm81.166-3.534a1.432,1.432,0,0,1,1.616-1.518,1.39,1.39,0,0,1,1.451,1.4,1.563,1.563,0,0,1-1.383,1.706C3856.611,2312.686,3855.984,2312.192,3855.99,2311.2Zm653.079-.231a1.35,1.35,0,0,1-1.378-1.469c0-.919.611-1.293,1.439-1.388.852.134,1.453.566,1.4,1.464a1.341,1.341,0,0,1-1.375,1.395Zm-956.044,0a1.349,1.349,0,0,1-1.379-1.469c0-.919.611-1.293,1.439-1.388.852.134,1.453.566,1.394,1.464a1.341,1.341,0,0,1-1.374,1.395Zm762.777-4.1c-.157-.922.4-1.366,1.232-1.542a1.281,1.281,0,0,1,1.478,1.317,1.262,1.262,0,0,1-1.105,1.4,1.937,1.937,0,0,1-.311.026A1.273,1.273,0,0,1,4315.8,2306.87Zm-956.046,0c-.155-.922.4-1.366,1.234-1.542a1.28,1.28,0,0,1,1.477,1.317,1.26,1.26,0,0,1-1.1,1.4,1.937,1.937,0,0,1-.31.026A1.276,1.276,0,0,1,3359.755,2306.87Zm472.028-3.463a1.374,1.374,0,1,1,2.733-.249,1.241,1.241,0,0,1-1.106,1.389,1.908,1.908,0,0,1-.336.031A1.252,1.252,0,0,1,3831.783,2303.407Zm510.4-.7a1.581,1.581,0,0,1,3.16.106c-.018,1.01-.736,1.4-1.486,1.579C4342.762,2304.2,4342.133,2303.7,4342.179,2302.7Zm-956.044,0a1.581,1.581,0,0,1,3.159.106c-.018,1.01-.737,1.4-1.487,1.579C3386.716,2304.2,3386.089,2303.7,3386.135,2302.7Zm638.075,1.208a1.159,1.159,0,0,1-1.253-1.178,1.1,1.1,0,0,1,1.219-1.188,1.189,1.189,0,0,1,1.254,1.188,1.1,1.1,0,0,1-1.177,1.178Zm-78.808-2.067a1.286,1.286,0,0,1,1.363-1.446,1.411,1.411,0,1,1,.073,2.821l-.11,0A1.281,1.281,0,0,1,3945.4,2301.845Zm-270.244-2.407a1.411,1.411,0,0,1-1.526-1.584,1.492,1.492,0,0,1,1.6-1.543c.957.13,1.584.622,1.549,1.615a1.46,1.46,0,0,1-1.614,1.512Zm-18.74-4.925a1.739,1.739,0,0,1,1.763-2.051,1.953,1.953,0,0,1,2.114,1.583c-.058,1.378-.63,2.163-1.83,2.262-.074.006-.148.009-.218.009A1.771,1.771,0,0,1,3656.417,2294.513Zm558.395-3.958a2.264,2.264,0,0,1,2.5-2.421,2.231,2.231,0,0,1,2.367,2.282,2.436,2.436,0,0,1-2.248,2.629C4215.853,2292.833,4214.8,2292.16,4214.812,2290.555Zm-956.044,0a2.263,2.263,0,0,1,2.5-2.421,2.231,2.231,0,0,1,2.366,2.282,2.437,2.437,0,0,1-2.249,2.629C3259.807,2292.833,3258.76,2292.16,3258.767,2290.555Zm457.254.347a1.136,1.136,0,0,1-1.036-1.356,1.235,1.235,0,0,1,2.464.122,1.133,1.133,0,0,1-1.193,1.249A1.877,1.877,0,0,1,3716.021,2290.9Zm849.064-1.354a1.172,1.172,0,0,1,1.208-1.229c.888-.023,1.31.513,1.363,1.37a1.2,1.2,0,0,1-1.23,1.214h-.063A1.179,1.179,0,0,1,4565.085,2289.548Zm-956.046,0a1.174,1.174,0,0,1,1.211-1.229c.886-.023,1.31.513,1.362,1.37a1.2,1.2,0,0,1-1.23,1.214h-.063A1.179,1.179,0,0,1,3609.039,2289.548Zm96.87-3.71a1.443,1.443,0,0,1-1.554-1.608,1.425,1.425,0,0,1,1.417-1.463c1.038-.1,1.519.53,1.721,1.4-.1,1-.532,1.673-1.525,1.673Zm503.713-.207a1.387,1.387,0,0,1-1.317-1.526,1.338,1.338,0,0,1,1.378-1.447,1.47,1.47,0,0,1,1.636,1.506c-.141.919-.633,1.476-1.5,1.476C4209.756,2285.64,4209.69,2285.637,4209.623,2285.632Zm-956.044,0a1.387,1.387,0,0,1-1.317-1.526,1.338,1.338,0,0,1,1.379-1.447,1.47,1.47,0,0,1,1.635,1.506c-.141.919-.633,1.476-1.5,1.476C3253.711,2285.64,3253.646,2285.637,3253.578,2285.632Zm1036.751-1.926a1.408,1.408,0,0,1,1.324-1.5,1.5,1.5,0,0,1,1.742,1.271c-.058,1.03-.469,1.711-1.469,1.734h-.055A1.422,1.422,0,0,1,4290.33,2283.706Zm-956.046,0a1.408,1.408,0,0,1,1.325-1.5,1.5,1.5,0,0,1,1.742,1.271c-.058,1.03-.469,1.711-1.469,1.734h-.054A1.424,1.424,0,0,1,3334.284,2283.706Zm951.631-2.742c.032-.721.432-1.24,1.226-1.137a1.291,1.291,0,0,1,1.2,1.292c.015.781-.551,1.082-1.27,1.135A1.213,1.213,0,0,1,4285.915,2280.963Zm-956.045,0c.032-.721.432-1.24,1.226-1.137a1.289,1.289,0,0,1,1.2,1.292c.016.781-.549,1.082-1.27,1.135A1.213,1.213,0,0,1,3329.87,2280.963Zm1215.192-.822a1.452,1.452,0,0,1,1.484-1.627c.964-.058,1.493.538,1.656,1.479a1.549,1.549,0,0,1-1.515,1.625c-.039,0-.078,0-.117,0A1.429,1.429,0,0,1,4545.063,2280.142Zm-956.044,0a1.451,1.451,0,0,1,1.482-1.627c.966-.058,1.493.538,1.657,1.479a1.549,1.549,0,0,1-1.514,1.625c-.04,0-.079,0-.117,0A1.428,1.428,0,0,1,3589.018,2280.142Zm777.842-.628a1.348,1.348,0,0,1,1.484-1.56c.87.01,1.254.628,1.381,1.389a1.379,1.379,0,0,1-1.386,1.448l-.078,0A1.281,1.281,0,0,1,4366.86,2279.514Zm-956.045,0a1.347,1.347,0,0,1,1.484-1.56c.87.01,1.253.628,1.382,1.389a1.38,1.38,0,0,1-1.387,1.448l-.077,0A1.282,1.282,0,0,1,3410.815,2279.514Zm604.428-1.593a2.325,2.325,0,1,1,4.65.088,2.134,2.134,0,0,1-2.231,2.366h-.091A2.154,2.154,0,0,1,4015.244,2277.921Zm-58.566.508c-.872-.012-1.262-.621-1.394-1.423a1.439,1.439,0,0,1,1.389-1.433,1.3,1.3,0,0,1,1.477,1.293,1.324,1.324,0,0,1-1.437,1.562Zm147.51-2.348c-.114-1.217.592-1.87,1.765-2.1,1.158.1,1.922.656,1.954,1.889a1.725,1.725,0,0,1-1.62,1.913,2.8,2.8,0,0,1-.294.016A1.717,1.717,0,0,1,4104.188,2276.081Zm-418.733-1.932c-.069-.869.467-1.321,1.311-1.456a1.277,1.277,0,0,1,1.421,1.3,1.261,1.261,0,0,1-1.272,1.461h-.076A1.309,1.309,0,0,1,3685.455,2274.149Zm151.286-2.333a1.669,1.669,0,0,1,1.831-1.96,1.632,1.632,0,0,1,1.757,1.757,1.8,1.8,0,0,1-3.588.2Zm-18.1-3.484a2.348,2.348,0,0,1,2.493-2.411,2.189,2.189,0,0,1,2.366,2.224,2.225,2.225,0,0,1-2.3,2.564l-.147,0C3819.607,2270.711,3818.834,2269.806,3818.645,2268.332Zm160.245-.02a1.637,1.637,0,1,1,3.273-.014,1.591,1.591,0,0,1-1.524,1.682A1.623,1.623,0,0,1,3978.89,2268.312Zm-276.391-1.818a2.233,2.233,0,0,1,2.6-2.317,2.209,2.209,0,0,1,2.25,2.389,2.342,2.342,0,0,1-2.446,2.5C3703.346,2268.892,3702.43,2268.065,3702.5,2266.495Zm251.547-9.393a1.641,1.641,0,0,1,.475-3.248,1.558,1.558,0,0,1,1.424,1.728c-.181.945-.677,1.541-1.594,1.541A2.461,2.461,0,0,1,3954.046,2257.1Zm53.869-.474a1.33,1.33,0,0,1-1.3-1.485,1.377,1.377,0,0,1,1.374-1.441,1.5,1.5,0,0,1,1.619,1.419c-.159.971-.635,1.517-1.488,1.517A1.986,1.986,0,0,1,4007.916,2256.628Zm60.85-3.268a1.068,1.068,0,0,1,1.039-1.323,1.135,1.135,0,0,1,1.3,1.115,1.181,1.181,0,0,1-1.059,1.362A1.21,1.21,0,0,1,4068.765,2253.36Zm484.026.754a1.251,1.251,0,0,1-1.261-1.477,1.2,1.2,0,0,1,1.238-1.22c.89-.027,1.32.511,1.45,1.341-.118.8-.505,1.358-1.33,1.358C4552.856,2254.116,4552.824,2254.115,4552.792,2254.113Zm-956.045,0a1.251,1.251,0,0,1-1.261-1.477,1.2,1.2,0,0,1,1.239-1.22c.89-.027,1.318.511,1.449,1.341-.118.8-.506,1.358-1.331,1.358C3596.811,2254.116,3596.78,2254.115,3596.747,2254.113Zm613.228-1.04a1.542,1.542,0,0,1-1.53-1.654,1.7,1.7,0,1,1,3.393.048,1.576,1.576,0,0,1-1.688,1.612C4210.092,2253.08,4210.034,2253.077,4209.975,2253.073Zm-956.046,0a1.542,1.542,0,0,1-1.529-1.654,1.7,1.7,0,1,1,3.392.048,1.577,1.577,0,0,1-1.689,1.612C3254.046,2253.08,3253.988,2253.077,3253.928,2253.073Zm1268.944-4.031a1.9,1.9,0,0,1,.564-2.739c1.049-.735,2.244-1.166,2.807.645a2.56,2.56,0,0,1-.573,2.663,1.7,1.7,0,0,1-1.221.744C4523.811,2250.355,4523.306,2249.7,4522.872,2249.042Zm-956.045,0a1.9,1.9,0,0,1,.567-2.739c1.049-.735,2.242-1.166,2.806.645a2.561,2.561,0,0,1-.574,2.663,1.693,1.693,0,0,1-1.22.744C3567.766,2250.355,3567.261,2249.7,3566.827,2249.042Zm969.852-.481a1.472,1.472,0,0,1,2.928.094,1.454,1.454,0,0,1-1.508,1.592C4537.146,2250.076,4536.575,2249.541,4536.678,2248.561Zm-956.045,0a1.473,1.473,0,0,1,2.929.094,1.454,1.454,0,0,1-1.507,1.592C3581.1,2250.076,3580.531,2249.541,3580.633,2248.561Zm450.711,1.184a1.456,1.456,0,0,1-1.494-1.632,1.418,1.418,0,0,1,1.607-1.5,1.487,1.487,0,0,1,1.529,1.532c-.146,1-.622,1.6-1.546,1.6Zm-124.416-2.011a1.209,1.209,0,0,1,1.143-1.337c.922-.111,1.335.45,1.494,1.263-.068.732-.382,1.29-1.145,1.355-.058.005-.115.008-.171.008A1.251,1.251,0,0,1,3906.928,2247.734Zm-210.854-2.905a1.315,1.315,0,0,1,1.407-1.373,1.253,1.253,0,0,1,1.36,1.384,1.346,1.346,0,0,1-1.3,1.411C3696.641,2246.12,3696.065,2245.686,3696.075,2244.828Zm443.665.3a1.864,1.864,0,0,1-1.969-1.947,1.975,1.975,0,0,1,2.063-2.127c1.208.15,1.979.77,2,1.973a1.888,1.888,0,0,1-2.039,2.1Zm-956.045,0a1.863,1.863,0,0,1-1.969-1.947,1.975,1.975,0,0,1,2.062-2.127c1.208.15,1.981.77,2,1.973a1.887,1.887,0,0,1-2.039,2.1Zm1007.152-3.865a1.585,1.585,0,1,1,3.167-.105,1.578,1.578,0,0,1-1.448,1.682C4191.54,2242.715,4190.859,2242.275,4190.846,2241.26Zm-956.045,0a1.584,1.584,0,1,1,3.167-.105,1.578,1.578,0,0,1-1.447,1.682C3235.5,2242.715,3234.815,2242.275,3234.8,2241.26Zm535.633.156a1.262,1.262,0,0,1,1.455-1.292,1.191,1.191,0,0,1,1.22,1.229,1.324,1.324,0,0,1-1.289,1.466C3770.958,2242.728,3770.41,2242.273,3770.433,2241.416Zm793.4,1.063a1.3,1.3,0,0,1-1.317-1.488,1.321,1.321,0,0,1,1.505-1.31c.892.053,1.274.654,1.314,1.547a1.3,1.3,0,0,1-1.335,1.258C4563.95,2242.486,4563.895,2242.484,4563.837,2242.479Zm-956.044,0a1.3,1.3,0,0,1-1.317-1.488,1.321,1.321,0,0,1,1.5-1.31c.892.053,1.275.654,1.315,1.547a1.3,1.3,0,0,1-1.336,1.258Q3607.879,2242.486,3607.793,2242.479Zm768.9-1.334a1.3,1.3,0,0,1,1.184-1.353c.813-.134,1.23.387,1.286,1.123a1.214,1.214,0,0,1-1.123,1.351C4377.3,2242.231,4376.713,2241.945,4376.7,2241.145Zm-956.045,0a1.3,1.3,0,0,1,1.184-1.353c.813-.134,1.23.387,1.285,1.123a1.214,1.214,0,0,1-1.122,1.351C3421.252,2242.231,3420.668,2241.945,3420.652,2241.145Zm1049.755-1.2a1.575,1.575,0,0,1-1.471-1.725,1.651,1.651,0,0,1,1.771-1.7c1.092.189,1.733.78,1.623,1.892a1.561,1.561,0,0,1-1.638,1.55A2.441,2.441,0,0,1,4470.407,2239.947Zm-956.047,0a1.574,1.574,0,0,1-1.469-1.725,1.65,1.65,0,0,1,1.769-1.7c1.093.189,1.734.78,1.624,1.892a1.56,1.56,0,0,1-1.639,1.55A2.458,2.458,0,0,1,3514.36,2239.947Zm290.213-1.757a1.2,1.2,0,0,1,1.27-1.182,1.3,1.3,0,0,1,1.393,1.379c0,.892-.612,1.254-1.417,1.314C3804.937,2239.551,3804.466,2239.079,3804.573,2238.19Zm354.655-4.247a1.246,1.246,0,0,1,1.485-1.251,1.175,1.175,0,0,1,1.191,1.257,1.318,1.318,0,0,1-1.2,1.449C4159.723,2235.281,4159.2,2234.806,4159.228,2233.943Zm-956.045,0a1.246,1.246,0,0,1,1.486-1.251,1.175,1.175,0,0,1,1.191,1.257,1.318,1.318,0,0,1-1.2,1.449C3203.678,2235.281,3203.151,2234.806,3203.183,2233.943Zm781.9-1.063a1.216,1.216,0,0,1-1.213-1.267,1.288,1.288,0,0,1,1.35-1.437c.856,0,1.312.575,1.367,1.49a1.287,1.287,0,0,1-1.345,1.22C3985.2,2232.886,3985.142,2232.884,3985.087,2232.88Zm-104.52-2.713a1.379,1.379,0,0,1-1.341-1.521,1.4,1.4,0,0,1,1.409-1.474,1.5,1.5,0,0,1,1.646,1.539c-.142.916-.636,1.466-1.513,1.466C3880.7,2230.176,3880.637,2230.173,3880.568,2230.167Zm512.624-.44a1.285,1.285,0,0,1-1.322-1.451,1.159,1.159,0,0,1,1.288-1.156,1.238,1.238,0,0,1,1.313,1.417c-.125.7-.5,1.19-1.2,1.191Zm-956.045,0a1.285,1.285,0,0,1-1.321-1.451,1.159,1.159,0,0,1,1.288-1.156,1.24,1.24,0,0,1,1.314,1.417c-.126.7-.5,1.19-1.205,1.191Zm1110.585-.146a1.165,1.165,0,0,1-1.229-1.451,1.146,1.146,0,0,1,1.375-1.037,1.2,1.2,0,0,1,1.119,1.32,1.175,1.175,0,0,1-1.216,1.169Zm-956.045,0a1.165,1.165,0,0,1-1.229-1.451,1.146,1.146,0,0,1,1.374-1.037,1.2,1.2,0,0,1,1.118,1.32,1.173,1.173,0,0,1-1.214,1.169Zm804.134-1.823a.935.935,0,0,1,1.084-.953,1.067,1.067,0,0,1,1.058,1.037.952.952,0,0,1-.957,1.086h-.067A1.035,1.035,0,0,1,4395.821,2227.757Zm-956.044,0a.934.934,0,0,1,1.083-.953,1.066,1.066,0,0,1,1.058,1.037.952.952,0,0,1-.956,1.086h-.068A1.034,1.034,0,0,1,3439.777,2227.757Zm916.144-.642a1.641,1.641,0,0,1,.031-2.083c.793-.819,1.9-1.311,1.743-2.8-.052-.493.725-.793,1.345-.629s.932.577.916,1.422c-1.407.833-.385,2.158-.462,3.359a1.725,1.725,0,0,1-1.4,1.566,2.4,2.4,0,0,1-.613.085A1.785,1.785,0,0,1,4355.921,2227.115Zm-956.044,0a1.638,1.638,0,0,1,.031-2.083c.792-.819,1.9-1.311,1.742-2.8-.053-.493.725-.793,1.345-.629s.932.577.917,1.422c-1.407.833-.385,2.158-.462,3.359a1.728,1.728,0,0,1-1.4,1.566,2.4,2.4,0,0,1-.614.085A1.784,1.784,0,0,1,3399.877,2227.115Zm961.409-1.608a1.527,1.527,0,0,1,1.52-1.67,1.675,1.675,0,0,1,1.87,1.5c-.091,1.116-.6,1.761-1.562,1.819-.055,0-.109,0-.162,0A1.553,1.553,0,0,1,4361.286,2225.507Zm-956.045,0a1.527,1.527,0,0,1,1.521-1.67,1.676,1.676,0,0,1,1.869,1.5c-.093,1.116-.6,1.761-1.562,1.819-.055,0-.109,0-.162,0A1.553,1.553,0,0,1,3405.24,2225.507Zm463.188-1.865a1.546,1.546,0,0,1,1.86-1.571,1.63,1.63,0,0,1,1.492,1.6c-.172,1.036-.651,1.691-1.628,1.695h-.012A1.556,1.556,0,0,1,3868.428,2223.642Zm382.623-2.789a1.524,1.524,0,0,1,1.688-1.466,1.5,1.5,0,0,1,1.586,1.559,1.607,1.607,0,0,1-1.575,1.78C4251.543,2222.573,4250.964,2221.916,4251.051,2220.853Zm-956.045,0a1.524,1.524,0,0,1,1.688-1.466,1.5,1.5,0,0,1,1.587,1.559,1.609,1.609,0,0,1-1.574,1.78C3295.5,2222.573,3294.919,2221.916,3295.006,2220.853Zm686.066-.334a1.587,1.587,0,0,1,1.723-1.72,1.536,1.536,0,0,1,1.634,1.518,1.64,1.64,0,0,1-1.6,1.875C3981.8,2222.121,3981.08,2221.612,3981.073,2220.519Zm231.365-.022c-.563-.439-.582-.872.01-1.3.626-1.62,1.752-1.488,2.828-.629a1.565,1.565,0,0,1-.035,2.621,2.41,2.41,0,0,1-1.408.6C4213.266,2221.789,4212.765,2221.418,4212.438,2220.5Zm-956.045,0c-.562-.439-.581-.872.01-1.3.627-1.62,1.754-1.488,2.827-.629a1.564,1.564,0,0,1-.033,2.621,2.41,2.41,0,0,1-1.408.6C3257.221,2221.789,3256.719,2221.418,3256.393,2220.5Zm389.564-.329a1.355,1.355,0,0,1,1.4-1.428c.885-.044,1.334.5,1.5,1.316a1.38,1.38,0,0,1-1.258,1.555,2.2,2.2,0,0,1-.22.011A1.337,1.337,0,0,1,3645.956,2220.168Zm781.258-1.349a1.547,1.547,0,1,1,.179-3.088,1.545,1.545,0,0,1-.087,3.089Zm-956.045,0a1.547,1.547,0,1,1,.178-3.088,1.545,1.545,0,0,1-.087,3.089Zm318.671-1.4a1.915,1.915,0,0,1,.168-3.826,1.845,1.845,0,0,1,1.861,1.8c-.16,1.335-.812,2.024-1.924,2.024Zm745.441-.388a1.462,1.462,0,0,1-1.528-1.643,1.487,1.487,0,0,1,1.652-1.531,1.562,1.562,0,0,1,1.556,1.642,1.54,1.54,0,0,1-1.579,1.535Zm-956.046,0a1.462,1.462,0,0,1-1.528-1.643,1.488,1.488,0,0,1,1.652-1.531,1.563,1.563,0,0,1,1.557,1.642,1.542,1.542,0,0,1-1.581,1.535Zm673.6-2.964a1.291,1.291,0,0,1,1.3-1.47c.878-.057,1.327.492,1.483,1.311-.061.845-.456,1.425-1.331,1.475-.039,0-.078,0-.115,0A1.271,1.271,0,0,1,4252.833,2214.063Zm-956.045,0a1.29,1.29,0,0,1,1.3-1.47c.877-.057,1.328.492,1.481,1.311-.06.845-.454,1.425-1.329,1.475-.039,0-.078,0-.115,0A1.271,1.271,0,0,1,3296.788,2214.063Zm971.027-2.9a1.476,1.476,0,0,1,1.578-1.6,1.512,1.512,0,0,1,1.684,1.773,1.633,1.633,0,0,1-3.262-.169Zm-956.044,0a1.476,1.476,0,0,1,1.576-1.6,1.512,1.512,0,0,1,1.685,1.773,1.633,1.633,0,0,1-3.261-.169Zm340.036,1.355a1.079,1.079,0,0,1-.979-1.363,1.037,1.037,0,0,1,1.153-.919,1.1,1.1,0,0,1,1.143,1.208c-.111.7-.495,1.087-1.114,1.087A1.542,1.542,0,0,1,3651.806,2212.521Zm-12.413-.439a1.209,1.209,0,0,1-1.224-1.241,1.268,1.268,0,0,1,1.332-1.432c.878-.018,1.312.544,1.363,1.444a1.242,1.242,0,0,1-1.3,1.238C3639.512,2212.089,3639.454,2212.086,3639.394,2212.081Zm712.942-3.57c.024-.85.441-1.423,1.3-1.448a1.212,1.212,0,0,1,1.276,1.181,1.187,1.187,0,0,1-1.275,1.421h-.056A1.22,1.22,0,0,1,4352.336,2208.511Zm-956.045,0c.024-.85.441-1.423,1.3-1.448a1.213,1.213,0,0,1,1.277,1.181,1.188,1.188,0,0,1-1.275,1.421h-.057A1.219,1.219,0,0,1,3396.291,2208.511ZM3781.48,2205a1.478,1.478,0,0,1-1.476-1.657,1.573,1.573,0,0,1,1.581-1.564c.966.1,1.6.592,1.628,1.556a1.479,1.479,0,0,1-1.583,1.67C3781.58,2205.008,3781.53,2205.007,3781.48,2205Zm154.648-2.692a1.136,1.136,0,0,1,1.316-1.091,1.2,1.2,0,0,1,1.247,1.451,1.266,1.266,0,0,1-1.194,1.176C3936.6,2203.637,3936.068,2203.17,3936.128,2202.312Zm-77.97-.624a1.4,1.4,0,0,1,1.535-1.577,1.381,1.381,0,0,1,1.418,1.67,1.416,1.416,0,0,1-1.408,1.33C3858.782,2202.968,3858.177,2202.572,3858.158,2201.688Zm521.544-.831a1.366,1.366,0,0,1-1.26-1.532,1.468,1.468,0,0,1,1.536-1.5c1,.219,1.6.729,1.473,1.722a1.382,1.382,0,0,1-1.475,1.33A2.339,2.339,0,0,1,4379.7,2200.857Zm-956.045,0a1.368,1.368,0,0,1-1.261-1.532,1.469,1.469,0,0,1,1.537-1.5c1,.219,1.594.729,1.474,1.722a1.384,1.384,0,0,1-1.477,1.33A2.351,2.351,0,0,1,3423.657,2200.857Zm941.622-.138a2.4,2.4,0,0,1-2.205-2.476c-.052-1.09.69-1.665,1.849-1.7a2.432,2.432,0,0,1,1.952,2.643,1.364,1.364,0,0,1-1.389,1.541A1.891,1.891,0,0,1,4365.279,2200.719Zm-956.044,0a2.4,2.4,0,0,1-2.206-2.476c-.052-1.09.691-1.665,1.847-1.7a2.433,2.433,0,0,1,1.954,2.643,1.366,1.366,0,0,1-1.39,1.541A1.877,1.877,0,0,1,3409.234,2200.719Zm679.242-2.9a1.136,1.136,0,0,1,1.318-1.122,1.2,1.2,0,0,1,1.195,1.273c-.08.737-.444,1.257-1.21,1.271h-.04A1.182,1.182,0,0,1,4088.477,2197.821Zm281.181,1.239a1.169,1.169,0,0,1-1.2-1.237c.108-.767.515-1.222,1.287-1.193a1.216,1.216,0,0,1-.013,2.43Zm-956.045,0a1.169,1.169,0,0,1-1.2-1.237c.108-.767.515-1.222,1.287-1.193a1.216,1.216,0,0,1-.014,2.43Zm919.469-1.493a1.242,1.242,0,0,1-1.243-1.489,1.185,1.185,0,0,1,1.27-1.184,1.316,1.316,0,0,1,1.432,1.342c-.11.823-.55,1.334-1.358,1.334Zm-956.044,0a1.241,1.241,0,0,1-1.243-1.489,1.184,1.184,0,0,1,1.27-1.184,1.315,1.315,0,0,1,1.431,1.342c-.111.823-.55,1.334-1.358,1.334Zm608.841-3.423a1.269,1.269,0,0,1,1.164-1.6,1.369,1.369,0,1,1,.213,2.723l-.106,0A1.214,1.214,0,0,1,3985.878,2194.143Zm-311.251.9a1.317,1.317,0,0,1-1.351-1.669,1.259,1.259,0,0,1,1.556-1.171,1.424,1.424,0,0,1-.147,2.841Zm292.676-4a1.217,1.217,0,0,1,1.162-1.337c.9-.087,1.36.457,1.486,1.283a1.269,1.269,0,0,1-1.185,1.356c-.058,0-.115.007-.169.007A1.209,1.209,0,0,1,3967.3,2191.041Zm-103.638-1.186a1.185,1.185,0,0,1,1.09-1.351,1.165,1.165,0,0,1,1.371,1.323,1.276,1.276,0,0,1-1.1,1.24C3864.118,2191.023,3863.7,2190.6,3863.665,2189.854Zm521.65-2.645a1.569,1.569,0,1,1,3.133.178,1.57,1.57,0,1,1-3.133-.178Zm-956.044,0a1.568,1.568,0,1,1,3.131.178,1.569,1.569,0,1,1-3.131-.178Zm371.708-.453a1.02,1.02,0,0,1,.937-1.175,1.107,1.107,0,1,1,.488,2.151,1.668,1.668,0,0,1-.31.031A1.086,1.086,0,0,1,3800.979,2186.757Zm443.143-1.409a1.3,1.3,0,0,1,2.579-.3c.094.9-.475,1.31-1.281,1.471A1.253,1.253,0,0,1,4244.122,2185.348Zm-956.045,0a1.3,1.3,0,0,1,2.579-.3c.094.9-.475,1.31-1.282,1.471A1.253,1.253,0,0,1,3288.077,2185.348Zm635.473.979a1.5,1.5,0,0,1-1.534-1.881,1.481,1.481,0,0,1,1.8-1.344,1.555,1.555,0,0,1,1.434,1.768,1.522,1.522,0,0,1-1.59,1.459Zm248.075-1.824a1.4,1.4,0,0,1,1.481-1.367,1.415,1.415,0,0,1,1.453,1.592,1.358,1.358,0,0,1-1.447,1.357A1.378,1.378,0,0,1,4171.625,2184.5Zm-956.045,0a1.4,1.4,0,0,1,1.48-1.367,1.415,1.415,0,0,1,1.453,1.592,1.357,1.357,0,0,1-1.447,1.357A1.378,1.378,0,0,1,3215.58,2184.5Zm1072.82-1.759c-.7-.03-1.269-.391-1.277-1.148-.012-.914.634-1.255,1.456-1.231.777.024,1.109.516,1.106,1.263a1.124,1.124,0,0,1-1.2,1.117Zm-956.045,0c-.7-.03-1.269-.391-1.277-1.148-.011-.914.633-1.255,1.455-1.231.778.024,1.11.516,1.106,1.263a1.124,1.124,0,0,1-1.2,1.117Zm895.942-2.511a1.849,1.849,0,0,1,.52-3.661,1.812,1.812,0,0,1,1.637,1.873c-.224,1.143-.81,1.81-1.826,1.81A2.665,2.665,0,0,1,4228.3,2180.232Zm-956.046,0a1.849,1.849,0,0,1,.521-3.661,1.812,1.812,0,0,1,1.637,1.873c-.223,1.143-.809,1.81-1.827,1.81A2.678,2.678,0,0,1,3272.251,2180.232Zm1016.772-1.929a1.3,1.3,0,0,1,1.292-1.506,1.333,1.333,0,0,1,1.585,1.488,1.446,1.446,0,0,1-1.427,1.437A1.462,1.462,0,0,1,4289.024,2178.3Zm-956.044,0a1.3,1.3,0,0,1,1.29-1.506,1.333,1.333,0,0,1,1.587,1.488,1.438,1.438,0,0,1-2.877.018Zm1156.464-2.149a1.452,1.452,0,0,1-1.562-1.6,1.472,1.472,0,0,1,1.591-1.57c1.005-.009,1.485.629,1.574,1.574a1.5,1.5,0,0,1-1.567,1.593Zm-956.046,0a1.452,1.452,0,0,1-1.561-1.6,1.472,1.472,0,0,1,1.592-1.57c1.005-.009,1.484.629,1.574,1.574a1.5,1.5,0,0,1-1.568,1.593Zm965.208-3.87a1.435,1.435,0,0,1,1.5-1.6,1.418,1.418,0,0,1,1.6,1.492,1.477,1.477,0,0,1-1.478,1.618A1.5,1.5,0,0,1,4498.605,2172.285Zm-956.046,0a1.436,1.436,0,0,1,1.5-1.6,1.419,1.419,0,0,1,1.6,1.492,1.476,1.476,0,0,1-1.479,1.618A1.5,1.5,0,0,1,3542.56,2172.285Zm724.551-2.774a1.21,1.21,0,0,1-1.2-1.263,1.268,1.268,0,0,1,1.275-1.442c.876.093,1.446.523,1.4,1.4a1.282,1.282,0,0,1-1.379,1.3Zm-956.045,0a1.21,1.21,0,0,1-1.2-1.263,1.267,1.267,0,0,1,1.275-1.442c.875.093,1.447.523,1.4,1.4a1.283,1.283,0,0,1-1.379,1.3Zm788.721-1.25a1.138,1.138,0,0,1-1.048-1.366,1.219,1.219,0,0,1,1.3-1.162c.716.113,1.252.471,1.212,1.243a1.224,1.224,0,0,1-1.278,1.294C4099.911,2168.269,4099.85,2168.266,4099.787,2168.261Zm342.975-5.431a1.51,1.51,0,0,1,1.514-1.651c1.126-.063,1.671.607,1.815,1.672a1.592,1.592,0,0,1-1.561,1.635c-.056,0-.11.005-.165.005A1.494,1.494,0,0,1,4442.762,2162.83Zm-956.044,0a1.51,1.51,0,0,1,1.514-1.651c1.126-.063,1.67.607,1.815,1.672a1.593,1.593,0,0,1-1.561,1.635c-.056,0-.11.005-.164.005A1.493,1.493,0,0,1,3486.718,2162.83ZM3851,2164.094a1.523,1.523,0,0,1-1.565-1.864,1.506,1.506,0,0,1,1.777-1.38,1.627,1.627,0,0,1-.14,3.245Zm-142.474-5.556c-.011-.773.577-1.141,1.284-1.138a1.16,1.16,0,0,1,1.232,1.211,1.2,1.2,0,0,1-1.086,1.333C3709.091,2159.839,3708.534,2159.383,3708.521,2158.538Zm290.64,1.063a1.211,1.211,0,0,1-1.216-1.279,1.311,1.311,0,0,1,1.372-1.444c.885,0,1.3.61,1.372,1.488a1.3,1.3,0,0,1-1.341,1.244C3999.289,2159.609,3999.227,2159.607,3999.162,2159.6Zm390.436-4.1a1.326,1.326,0,0,1,1.294-1.527c.917-.11,1.33.487,1.541,1.192-.031.95-.39,1.569-1.294,1.621-.042,0-.083,0-.124,0A1.323,1.323,0,0,1,4389.6,2155.5Zm-956.046,0a1.328,1.328,0,0,1,1.294-1.527c.919-.11,1.331.487,1.542,1.192-.031.95-.389,1.569-1.294,1.621-.042,0-.083,0-.124,0A1.325,1.325,0,0,1,3433.552,2155.5Zm599.75-.434a1.244,1.244,0,0,1,1.117-1.591c.866-.123,1.36.4,1.555,1.215a1.312,1.312,0,0,1-1.311,1.471c-.045,0-.089.006-.133.006A1.212,1.212,0,0,1,4033.3,2155.064Zm-276.736-1.3a1.48,1.48,0,0,1,1.456-1.667,1.568,1.568,0,0,1,1.818,1.586,1.546,1.546,0,0,1-1.477,1.69c-.059,0-.116.005-.173.005A1.5,1.5,0,0,1,3756.565,2153.768Zm603.368,1.2a1.556,1.556,0,0,1-1.606-1.594c-.059-1.106.57-1.706,1.694-1.846,1.044.094,1.747.642,1.718,1.752a1.6,1.6,0,0,1-1.732,1.69Zm-956.046,0a1.557,1.557,0,0,1-1.606-1.594c-.059-1.106.571-1.706,1.7-1.846a1.636,1.636,0,0,1,1.717,1.752,1.6,1.6,0,0,1-1.734,1.69Zm904.625-.071a1.471,1.471,0,1,1,.131-2.936c.821.182,1.386.634,1.318,1.531a1.365,1.365,0,0,1-1.392,1.406Zm-956.044,0a1.471,1.471,0,1,1,.131-2.936c.82.182,1.385.634,1.316,1.531a1.363,1.363,0,0,1-1.39,1.406Zm855.237-2.852a1.576,1.576,0,1,1,3.144.229c-.054,1-.756,1.407-1.667,1.488C4208.218,2153.572,4207.611,2153.037,4207.706,2152.051Zm-956.044,0a1.576,1.576,0,1,1,3.143.229c-.054,1-.756,1.407-1.667,1.488C3252.174,2153.572,3251.566,2153.037,3251.661,2152.051Zm1317.323-1.058a1.571,1.571,0,0,1,1.556-1.635,1.6,1.6,0,0,1,1.736,1.713,1.494,1.494,0,0,1-1.551,1.6c-.038,0-.075,0-.11,0A1.51,1.51,0,0,1,4568.984,2150.993Zm-956.046,0a1.572,1.572,0,0,1,1.557-1.635,1.6,1.6,0,0,1,1.736,1.713,1.5,1.5,0,0,1-1.551,1.6c-.038,0-.075,0-.112,0A1.511,1.511,0,0,1,3612.938,2150.993Zm923.732,1.49a1.363,1.363,0,0,1-1.463-1.379,1.5,1.5,0,1,1,2.974.052,1.35,1.35,0,0,1-1.471,1.327Zm-956.044,0a1.361,1.361,0,0,1-1.463-1.379,1.5,1.5,0,0,1,1.46-1.657,1.518,1.518,0,0,1,1.514,1.709,1.35,1.35,0,0,1-1.471,1.327Zm361.942-2.071a1.584,1.584,0,0,1-1.684-1.793,1.564,1.564,0,0,1,1.583-1.617,1.7,1.7,0,0,1,1.875,1.529c-.131,1.163-.653,1.881-1.73,1.881Zm502.61-2.044h0c-1.027-1.362-.87-2.529.575-3.487h0c1.438-1.285,2.461-.359,3.156.8a2.3,2.3,0,0,1-.694,3.227,2.583,2.583,0,0,1-1.472.583A1.819,1.819,0,0,1,4445.177,2148.368Zm-956.047,0c-1.028-1.362-.87-2.529.574-3.487,1.44-1.286,2.463-.361,3.159.8a2.3,2.3,0,0,1-.694,3.227,2.577,2.577,0,0,1-1.472.583A1.824,1.824,0,0,1,3489.13,2148.367Zm588.408.236a1.4,1.4,0,1,1,.248-2.78,1.35,1.35,0,0,1,1.294,1.51c-.162.779-.587,1.282-1.335,1.282A1.924,1.924,0,0,1,4077.539,2148.6Zm-310.108-1.928a1.13,1.13,0,0,1-1.193-1.263,1.175,1.175,0,0,1,1.246-1.212c.771.1,1.242.5,1.21,1.28a1.125,1.125,0,0,1-1.191,1.2Zm244.5-3.307a1.079,1.079,0,0,1,1.063-1.326,1.027,1.027,0,0,1,1.176.923,1.127,1.127,0,0,1-1.089,1.334,1.345,1.345,0,0,1-.157.009A.974.974,0,0,1,4011.931,2143.368Zm47.027-1.959a1.74,1.74,0,0,1,1.962-1.866,1.709,1.709,0,0,1,1.7,2.092,1.744,1.744,0,0,1-1.929,1.6C4059.665,2143.046,4058.932,2142.512,4058.958,2141.409Zm487.123,1.15a1.2,1.2,0,0,1-1.167-1.277,1.3,1.3,0,0,1,1.353-1.4c.8.156,1.384.569,1.31,1.448a1.241,1.241,0,0,1-1.337,1.233C4546.188,2142.565,4546.135,2142.563,4546.081,2142.559Zm-956.045,0a1.2,1.2,0,0,1-1.167-1.277,1.3,1.3,0,0,1,1.354-1.4c.8.156,1.385.569,1.311,1.448a1.243,1.243,0,0,1-1.337,1.233C3590.144,2142.565,3590.09,2142.563,3590.036,2142.559Zm383.667-3.533a1.711,1.711,0,0,1,1.606-1.792c1.209.146,1.893.7,1.89,1.8a1.623,1.623,0,0,1-1.755,1.743h-.038A1.608,1.608,0,0,1,3973.7,2139.026Zm-243.415-1.724a1.2,1.2,0,0,1-1.146-1.338,1.192,1.192,0,0,1,1.457-1.272,1.322,1.322,0,0,1,1.225,1.183c-.177.9-.592,1.432-1.4,1.432C3730.38,2137.306,3730.335,2137.3,3730.288,2137.3Zm263.824-3.6a1.252,1.252,0,1,1,2.489-.2c.069.767-.447,1.127-1.139,1.265C3994.745,2134.739,3994.166,2134.463,3994.112,2133.706Zm-136.76-.944a1.437,1.437,0,0,1,1.693-1.437,1.467,1.467,0,0,1,1.441,1.7,1.49,1.49,0,0,1-1.646,1.456A1.518,1.518,0,0,1,3857.352,2132.762Zm276.839-.635a1.241,1.241,0,0,1-1.3-1.431,1.264,1.264,0,0,1,1.429-1.317c.849.046,1.293.593,1.336,1.5a1.317,1.317,0,0,1-1.391,1.249Zm-956.044,0a1.242,1.242,0,0,1-1.3-1.431,1.266,1.266,0,0,1,1.431-1.317c.848.046,1.292.593,1.335,1.5a1.317,1.317,0,0,1-1.391,1.249Zm1211.307-1.527a1.186,1.186,0,0,1,1.264-1.207,1.319,1.319,0,0,1,1.345,1.456c-.016.779-.566,1.1-1.293,1.193C4389.946,2131.919,4389.374,2131.51,4389.453,2130.6Zm-956.046,0a1.187,1.187,0,0,1,1.266-1.207,1.318,1.318,0,0,1,1.344,1.456c-.014.779-.565,1.1-1.292,1.193C3433.9,2131.919,3433.33,2131.51,3433.407,2130.6Zm819.515-.177a1.219,1.219,0,0,1-1.256-1.229,1.278,1.278,0,0,1,1.32-1.465c.88-.032,1.331.523,1.4,1.424a1.255,1.255,0,0,1-1.323,1.274C4253.016,2130.427,4252.969,2130.426,4252.921,2130.423Zm-956.045,0a1.218,1.218,0,0,1-1.255-1.229,1.275,1.275,0,0,1,1.318-1.465c.881-.032,1.333.523,1.4,1.424a1.255,1.255,0,0,1-1.323,1.274C3296.971,2130.427,3296.925,2130.426,3296.877,2130.423Zm441.19-2.372a1.137,1.137,0,0,1-1.12-1.328,1.12,1.12,0,0,1,1.322-1.117,1.164,1.164,0,0,1,1.14,1.31c-.134.7-.51,1.142-1.187,1.142C3738.171,2128.058,3738.119,2128.055,3738.066,2128.051Zm353.513-2.571a1.246,1.246,0,0,1,1.466-1.292c.771.043,1.094.587,1.192,1.3-.1.709-.425,1.252-1.2,1.291l-.113,0A1.228,1.228,0,0,1,4091.579,2125.48Zm337.984-.494a1.444,1.444,0,0,1,1.261-1.705c.965.024,1.578.4,1.664,1.262a1.4,1.4,0,0,1-1.378,1.7c-.046,0-.092,0-.138,0A1.349,1.349,0,0,1,4429.563,2124.986Zm-956.045,0a1.443,1.443,0,0,1,1.261-1.705c.966.024,1.578.4,1.664,1.262a1.4,1.4,0,0,1-1.379,1.7c-.047,0-.093,0-.138,0A1.349,1.349,0,0,1,3473.519,2124.986Zm649.539-1.726a1.886,1.886,0,0,1,2.187-1.98c1.212.058,1.747.9,1.868,2.065-.139,1.136-.726,1.928-1.93,1.946h-.052A1.86,1.86,0,0,1,4123.057,2123.26Zm-956.045,0a1.885,1.885,0,0,1,2.185-1.98c1.213.058,1.746.9,1.868,2.065-.137,1.136-.724,1.928-1.928,1.946h-.052A1.859,1.859,0,0,1,3167.012,2123.26Zm539.31,1.812a1.91,1.91,0,0,1-1.938-2.225,1.872,1.872,0,0,1,2.014-1.873,1.987,1.987,0,0,1,2.107,2.072c-.163,1.247-.8,2.031-2.012,2.031C3706.438,2125.077,3706.38,2125.075,3706.322,2125.072ZM3141,2121.687a1.965,1.965,0,0,1,2.012-2.177c1.356-.094,1.95.8,2.22,1.9-.085,1.4-.744,2.219-2.049,2.257h-.1A1.891,1.891,0,0,1,3141,2121.687Zm1221.789-1.409a1.57,1.57,0,1,1,3.135-.168,1.57,1.57,0,1,1-3.135.168Zm-956.045,0a1.569,1.569,0,1,1,3.134-.168,1.57,1.57,0,1,1-3.134.168Zm462.955-2.387a1.411,1.411,0,0,1-1.455-1.667c.051-.9.7-1.236,1.507-1.344.819.124,1.437.512,1.457,1.4a1.4,1.4,0,0,1-1.459,1.609Zm101.612-2.552a1.562,1.562,0,1,1,.121-3.123,1.563,1.563,0,0,1-.007,3.125Zm-178.269-2.025a1.346,1.346,0,0,1,1.179-1.366c.829-.16,1.147.407,1.3,1.081a1.206,1.206,0,0,1-1.142,1.359c-.055,0-.11.007-.165.007A1.052,1.052,0,0,1,3793.043,2113.313Zm520.469.06a1.536,1.536,0,0,1-1.561-1.869,1.5,1.5,0,0,1,1.786-1.362,1.557,1.557,0,0,1,1.44,1.739c-.163.885-.624,1.5-1.545,1.5C4313.594,2113.377,4313.554,2113.376,4313.512,2113.374Zm-956.045,0a1.536,1.536,0,0,1-1.561-1.869,1.5,1.5,0,0,1,1.784-1.362,1.556,1.556,0,0,1,1.44,1.739c-.161.885-.622,1.5-1.543,1.5C3357.549,2113.377,3357.509,2113.376,3357.468,2113.374Zm742.7-1.616a1.262,1.262,0,0,1,1.4-1.39,1.22,1.22,0,0,1,1.313,1.183,1.381,1.381,0,0,1-1.048,1.552C4100.751,2113.086,4100.2,2112.634,4100.172,2111.758Zm244.969-2.3a1.311,1.311,0,0,1,1.507-1.273c.886.044,1.273.623,1.371,1.446-.124.819-.534,1.419-1.408,1.419A1.348,1.348,0,0,1,4345.141,2109.459Zm-956.046,0a1.312,1.312,0,0,1,1.509-1.273c.885.044,1.273.623,1.371,1.446-.124.819-.534,1.419-1.408,1.419A1.35,1.35,0,0,1,3389.095,2109.459Zm1133.421-2.849a1.279,1.279,0,1,1,2.554.021c-.022.794-.585,1.1-1.207,1.215C4523.057,2107.736,4522.5,2107.387,4522.516,2106.611Zm-956.045,0a1.279,1.279,0,1,1,2.553.021c-.02.794-.584,1.1-1.207,1.215C3567.01,2107.736,3566.458,2107.387,3566.471,2106.611Zm365.161.234c-.132-.767.34-1.193,1.06-1.351.755,0,1.306.313,1.339,1.094a1.12,1.12,0,0,1-1.212,1.224h-.049A1.115,1.115,0,0,1,3931.632,2106.844Zm559.119-1.407a1.884,1.884,0,0,1,1.734-2.094c1.216.058,2.006.619,2.09,1.822a1.78,1.78,0,0,1-1.792,2.04c-.079.007-.155.01-.23.01A1.706,1.706,0,0,1,4490.751,2105.437Zm-956.045,0a1.884,1.884,0,0,1,1.735-2.094c1.216.058,2.005.619,2.089,1.822a1.78,1.78,0,0,1-1.791,2.04c-.079.007-.156.01-.23.01A1.705,1.705,0,0,1,3534.707,2105.437Zm435.708-2.469a1.4,1.4,0,0,1,1.668-1.415,1.42,1.42,0,0,1,1.3,1.512c-.129.809-.525,1.4-1.4,1.413h-.055A1.371,1.371,0,0,1,3970.414,2102.968Zm416.26-.192c-.041-.965.563-1.487,1.514-1.65a1.53,1.53,0,0,1,1.6,1.527,1.451,1.451,0,0,1-1.5,1.613l-.106,0A1.422,1.422,0,0,1,4386.674,2102.776Zm-956.046,0c-.04-.965.565-1.487,1.515-1.65a1.531,1.531,0,0,1,1.6,1.527,1.452,1.452,0,0,1-1.5,1.613l-.107,0A1.423,1.423,0,0,1,3430.628,2102.776Zm905.559.649a1.441,1.441,0,0,1-1.5-1.651,1.533,1.533,0,0,1,1.653-1.523,1.513,1.513,0,0,1,1.526,1.684,1.431,1.431,0,0,1-1.517,1.495C4336.3,2103.43,4336.242,2103.429,4336.187,2103.425Zm-956.044,0a1.441,1.441,0,0,1-1.5-1.651,1.534,1.534,0,0,1,1.654-1.523,1.512,1.512,0,0,1,1.525,1.684,1.429,1.429,0,0,1-1.515,1.495C3380.25,2103.43,3380.2,2103.429,3380.143,2103.425Zm915.644-1.769.006,0-.005,0c-.092-2.078.4-2.279,2.854-1.176,1.124.878.4,1.627-.333,2.046a2.479,2.479,0,0,1-1.185.372C4296.543,2102.9,4296.046,2102.556,4295.787,2101.656Zm-956.045,0c-.092-2.078.4-2.279,2.855-1.176h0c1.122.878.4,1.626-.334,2.045a2.476,2.476,0,0,1-1.185.372C3340.5,2102.9,3340,2102.556,3339.742,2101.656Zm1194.547-.522a1.22,1.22,0,0,1-1.2-1.28,1.274,1.274,0,0,1,1.376-1.407,1.336,1.336,0,0,1,1.358,1.488,1.3,1.3,0,0,1-1.356,1.207C4534.407,2101.141,4534.349,2101.138,4534.289,2101.134Zm-956.044,0a1.219,1.219,0,0,1-1.2-1.28,1.274,1.274,0,0,1,1.376-1.407,1.337,1.337,0,0,1,1.359,1.488,1.3,1.3,0,0,1-1.357,1.207C3578.362,2101.141,3578.3,2101.138,3578.244,2101.134Zm330.519-2.7a1.279,1.279,0,0,1,1.417-1.369,1.4,1.4,0,1,1-.063,2.794h-.011A1.273,1.273,0,0,1,3908.763,2098.43Zm44.509-.46a1.393,1.393,0,0,1-1.472-1.658,1.465,1.465,0,0,1,2.916.227c-.1.862-.548,1.432-1.393,1.432Zm-120.912-.818a1.6,1.6,0,0,1,.095-3.2,1.458,1.458,0,0,1,1.62,1.512,1.477,1.477,0,0,1-1.6,1.692Zm680.2-2.691a1.45,1.45,0,0,1,2.894-.154,1.365,1.365,0,0,1-1.508,1.585h-.021A1.314,1.314,0,0,1,4512.555,2094.462Zm-956.045,0a1.45,1.45,0,0,1,2.893-.154,1.365,1.365,0,0,1-1.508,1.585h-.022A1.314,1.314,0,0,1,3556.51,2094.462Zm574.276-6.99a1.488,1.488,0,0,1,2.963-.064,1.492,1.492,0,1,1-2.963.064Zm-956.046,0a1.489,1.489,0,0,1,2.964-.064,1.492,1.492,0,1,1-2.964.064Zm709.1,1.338a1.394,1.394,0,0,1-1.484-1.371,1.448,1.448,0,0,1,1.439-1.7c1.01-.075,1.506.551,1.638,1.5a1.469,1.469,0,0,1-1.552,1.574Zm69.991-.052a1.2,1.2,0,0,1-1.168-1.277,1.231,1.231,0,0,1,1.363-1.367,1.327,1.327,0,1,1-.011,2.653C3953.953,2088.766,3953.892,2088.762,3953.828,2088.757Zm584.5-3.473a1.1,1.1,0,0,1-1.056-1.1c-.042-.8.492-1.135,1.218-1.234.717.122,1.273.457,1.185,1.259a1.1,1.1,0,0,1-1.152,1.083A1.677,1.677,0,0,1,4538.328,2085.284Zm-956.046,0a1.1,1.1,0,0,1-1.055-1.1c-.041-.8.492-1.135,1.219-1.234.717.122,1.272.457,1.185,1.259a1.1,1.1,0,0,1-1.154,1.083A1.7,1.7,0,0,1,3582.282,2085.284Zm67.1-1.281a1.357,1.357,0,0,1-1.38-1.456c-.03-.892.57-1.3,1.319-1.459.9.074,1.536.422,1.569,1.324a1.371,1.371,0,0,1-1.463,1.592Zm248.745-2.47a1.273,1.273,0,0,1,1.395-1.368,1.386,1.386,0,1,1-.037,2.772h-.031A1.268,1.268,0,0,1,3898.123,2081.533Zm435.089-.967c-.07-.9.488-1.356,1.333-1.515a1.34,1.34,0,0,1,1.476,1.348,1.273,1.273,0,0,1-1.3,1.49l-.091,0A1.323,1.323,0,0,1,4333.211,2080.567Zm-956.045,0c-.07-.9.487-1.356,1.333-1.515a1.342,1.342,0,0,1,1.476,1.348,1.274,1.274,0,0,1-1.3,1.49l-.091,0A1.321,1.321,0,0,1,3377.167,2080.567Zm1140.044,1.005a1.476,1.476,0,0,1-1.605-1.517,1.509,1.509,0,0,1,1.723-1.673c1.013.024,1.324.8,1.522,1.506-.176,1.053-.647,1.684-1.587,1.684Zm-956.045,0a1.475,1.475,0,0,1-1.6-1.517,1.509,1.509,0,0,1,1.723-1.673c1.013.024,1.322.8,1.521,1.506-.175,1.053-.647,1.684-1.588,1.684Zm124.21-.208a2.258,2.258,0,0,1-2.325-2.573,2.673,2.673,0,0,1,2.54-2.487c1.433.314,2.527.949,2.475,2.564a2.293,2.293,0,0,1-2.457,2.5C3685.532,2081.37,3685.454,2081.368,3685.375,2081.364Zm136.091-1.6a1.01,1.01,0,0,1,.892-1.207,1.156,1.156,0,0,1,1.356,1.1,1.168,1.168,0,0,1-1.04,1.393A1.233,1.233,0,0,1,3821.466,2079.763Zm-3.512-1.148a1.525,1.525,0,0,1,.092-3.047c1.037-.05,1.452.655,1.6,1.578-.146.91-.619,1.475-1.525,1.475Q3818.037,2078.621,3817.954,2078.615Zm-166.461-.267a1.187,1.187,0,0,1-1.17-1.315,1.239,1.239,0,0,1,1.466-1.3,1.325,1.325,0,0,1,1.214,1.288c-.135.837-.564,1.339-1.359,1.339C3651.595,2078.354,3651.544,2078.352,3651.492,2078.348Zm53.686-.432a1.413,1.413,0,0,1-1.336-1.728,1.4,1.4,0,0,1,1.526-1.27c1.029.008,1.4.679,1.507,1.508-.16.942-.62,1.507-1.433,1.507A1.94,1.94,0,0,1,3705.178,2077.915Zm849.062-2.017a1.215,1.215,0,0,1,1.257-1.207c.784-.053,1.083.525,1.253,1.062-.045.85-.365,1.389-1.117,1.45-.054,0-.108.007-.16.007A1.17,1.17,0,0,1,4554.241,2075.9Zm-956.044,0a1.214,1.214,0,0,1,1.257-1.207c.784-.053,1.082.525,1.252,1.062-.044.85-.363,1.389-1.116,1.45-.055,0-.109.007-.161.007A1.168,1.168,0,0,1,3598.2,2075.9Zm430.051,1.3a1.282,1.282,0,0,1-1.313-1.484,1.263,1.263,0,0,1,1.287-1.236c.907-.043,1.352.493,1.482,1.345-.111.814-.527,1.379-1.338,1.379C4028.327,2077.2,4028.287,2077.2,4028.248,2077.2Zm-215.183-2.982a1.243,1.243,0,0,1,1.271-1.451,1.294,1.294,0,0,1,1.474,1.274,1.39,1.39,0,0,1-1.161,1.493C3813.682,2075.486,3813.129,2075.063,3813.065,2074.215Zm-42.038-.654a1.34,1.34,0,0,1,1.393-1.412,1.432,1.432,0,0,1,.239,2.851,2.022,2.022,0,0,1-.217.012A1.341,1.341,0,0,1,3771.027,2073.562Zm334.25-1.343a2.13,2.13,0,0,1-2.2-2.394,2.084,2.084,0,0,1,2.38-2.192,2.236,2.236,0,0,1,2.254,2.379c-.208,1.357-.93,2.21-2.284,2.21C4105.377,2072.222,4105.327,2072.221,4105.276,2072.219Zm-956.045,0a2.131,2.131,0,0,1-2.2-2.394,2.086,2.086,0,0,1,2.381-2.192,2.235,2.235,0,0,1,2.253,2.379c-.208,1.357-.928,2.21-2.283,2.21C3149.331,2072.222,3149.282,2072.221,3149.231,2072.219Zm927.839-.484a1.436,1.436,0,0,1-1.445-1.687,1.4,1.4,0,0,1,1.484-1.365c1.027-.035,1.5.579,1.615,1.54-.138.9-.583,1.517-1.5,1.517C4077.177,2071.741,4077.125,2071.739,4077.07,2071.735Zm-86.213-4.687a1.273,1.273,0,0,1,1.47-1.3,1.216,1.216,0,0,1,1.21,1.265,1.261,1.261,0,0,1-1.292,1.439C3991.364,2068.374,3990.813,2067.932,3990.858,2067.048Zm364.74-.456a1.06,1.06,0,0,1-1.13-1.227,1.035,1.035,0,0,1,1.023-1.057,1.105,1.105,0,0,1,1.289,1c-.047.817-.409,1.28-1.154,1.28Zm-956.044,0a1.06,1.06,0,0,1-1.131-1.227,1.033,1.033,0,0,1,1.023-1.057,1.1,1.1,0,0,1,1.288,1c-.046.817-.407,1.28-1.152,1.28Zm790.33-1.793a1.225,1.225,0,0,1,1.143-1.331,1.3,1.3,0,0,1,1.539,1.232c.118.927-.482,1.311-1.225,1.471C4190.393,2066.127,4189.871,2065.679,4189.883,2064.8Zm-956.045,0a1.226,1.226,0,0,1,1.141-1.331,1.3,1.3,0,0,1,1.539,1.232c.118.927-.481,1.311-1.224,1.471C3234.348,2066.127,3233.826,2065.679,3233.838,2064.8Zm891.11-.348a1.44,1.44,0,0,1-1.483-1.623,1.506,1.506,0,0,1,1.627-1.483,1.467,1.467,0,0,1,1.491,1.642,1.407,1.407,0,0,1-1.476,1.469C4125.055,2064.456,4125,2064.454,4124.948,2064.45Zm-956.045,0a1.44,1.44,0,0,1-1.483-1.623,1.507,1.507,0,0,1,1.628-1.483,1.468,1.468,0,0,1,1.492,1.642,1.409,1.409,0,0,1-1.479,1.469C3169.009,2064.456,3168.957,2064.454,3168.9,2064.45Zm1410-4.344a1.229,1.229,0,0,1-1.151-1.334,1.2,1.2,0,0,1,1.476-1.24,1.247,1.247,0,0,1,1.177,1.307c-.126.79-.548,1.277-1.307,1.277A1.847,1.847,0,0,1,4578.9,2060.106Zm-956.045,0a1.23,1.23,0,0,1-1.152-1.334,1.2,1.2,0,0,1,1.478-1.24,1.246,1.246,0,0,1,1.176,1.307c-.125.79-.548,1.277-1.307,1.277A1.859,1.859,0,0,1,3622.856,2060.106Zm148.327-.745a1.3,1.3,0,0,1-1.32-1.463,1.371,1.371,0,0,1,1.5-1.33,1.346,1.346,0,0,1,1.273,1.5,1.231,1.231,0,0,1-1.3,1.3Q3771.265,2059.368,3771.184,2059.361Zm-12.255-.081a1.215,1.215,0,0,1-1.293-1.2c-.067-.908.5-1.325,1.329-1.469a1.257,1.257,0,0,1,1.253,1.234,1.183,1.183,0,0,1-1.28,1.43Zm810.7-2.152a1.542,1.542,0,0,1,1.641-1.568,1.681,1.681,0,1,1,.035,3.361C4570.259,2058.807,4569.574,2058.275,4569.629,2057.129Zm-956.046,0a1.543,1.543,0,0,1,1.642-1.568,1.681,1.681,0,1,1,.035,3.361C3614.213,2058.807,3613.529,2058.275,3613.583,2057.129Zm173.544-1.4a1.079,1.079,0,0,1-1.034-1.081,1.254,1.254,0,0,1,.951-1.355c.877.083,1.315.523,1.3,1.252a1.1,1.1,0,0,1-1.147,1.185Zm709.421-3.2a1.384,1.384,0,0,1,1.439-1.4,1.324,1.324,0,0,1,1.5,1.3,1.46,1.46,0,0,1-1.377,1.71C4497.114,2054.032,4496.52,2053.528,4496.548,2052.528Zm-956.046,0a1.385,1.385,0,0,1,1.44-1.4,1.324,1.324,0,0,1,1.506,1.3,1.46,1.46,0,0,1-1.378,1.71C3541.07,2054.032,3540.475,2053.528,3540.5,2052.528Zm902.014,1.392a1.414,1.414,0,0,1-1.433-1.667,1.523,1.523,0,0,1,1.577-1.487,1.549,1.549,0,0,1,1.523,1.72,1.4,1.4,0,0,1-1.5,1.44C4442.626,2053.925,4442.572,2053.923,4442.516,2053.919Zm-956.044,0a1.413,1.413,0,0,1-1.433-1.667,1.523,1.523,0,0,1,1.576-1.487,1.549,1.549,0,0,1,1.522,1.72,1.4,1.4,0,0,1-1.5,1.44C3486.582,2053.925,3486.527,2053.923,3486.472,2053.919Zm782.738-1.657c.1-.954.6-1.574,1.576-1.573a1.563,1.563,0,1,1,.017,3.126h-.033A1.515,1.515,0,0,1,4269.21,2052.262Zm-956.045,0c.1-.954.6-1.574,1.575-1.573a1.563,1.563,0,1,1,.018,3.126h-.032A1.514,1.514,0,0,1,3313.165,2052.262Zm492.165-.157a1.222,1.222,0,0,1,2.441.078,1.422,1.422,0,0,1-1.329,1.2h-.033C3805.641,2053.384,3805.307,2052.808,3805.33,2052.105Zm183.757-2a1.519,1.519,0,0,1,1.653-1.808,1.563,1.563,0,0,1,1.632,1.431c-.054,1.148-.573,1.741-1.552,1.819-.062.005-.123.008-.182.008A1.461,1.461,0,0,1,3989.086,2050.1Zm311.538-.035a1.289,1.289,0,0,1,1.506-1.3,1.15,1.15,0,0,1,1.048,1.392,1.249,1.249,0,0,1-1.236,1.185C4301.143,2051.2,4300.573,2050.842,4300.624,2050.067Zm-956.045,0a1.289,1.289,0,0,1,1.506-1.3,1.151,1.151,0,0,1,1.049,1.392,1.25,1.25,0,0,1-1.236,1.185C3345.1,2051.2,3344.529,2050.842,3344.579,2050.067Zm814.93-1.058a1.826,1.826,0,0,1,3.623-.435c-.02,1.365-.616,2.1-1.82,2.121h-.041A1.647,1.647,0,0,1,4159.509,2049.009Zm-956.044,0a1.826,1.826,0,0,1,3.623-.435c-.021,1.365-.616,2.1-1.821,2.121h-.04A1.647,1.647,0,0,1,3203.465,2049.009Zm877.107,1.281a1.656,1.656,0,0,1-1.756-1.99,1.623,1.623,0,0,1,1.915-1.553,1.76,1.76,0,0,1,1.681,1.726c-.178,1.155-.735,1.817-1.783,1.817Zm485.657-.7a1.085,1.085,0,0,1-1.047-1.093,1.179,1.179,0,0,1,1.111-1.344,1.157,1.157,0,0,1,1.18,1.257,1.09,1.09,0,0,1-1.134,1.184C4566.3,2049.592,4566.265,2049.59,4566.229,2049.588Zm-956.045,0a1.083,1.083,0,0,1-1.046-1.093,1.178,1.178,0,0,1,1.11-1.344,1.156,1.156,0,0,1,1.18,1.257,1.09,1.09,0,0,1-1.134,1.184C3610.258,2049.592,3610.221,2049.59,3610.183,2049.588Zm786.155-2.78a1.654,1.654,0,0,1,1.852-1.632,1.745,1.745,0,0,1,1.741,1.767c-.145,1.048-.667,1.766-1.758,1.773h-.02A1.645,1.645,0,0,1,4396.338,2046.808Zm-956.045,0a1.654,1.654,0,0,1,1.852-1.632,1.743,1.743,0,0,1,1.74,1.767c-.144,1.048-.668,1.766-1.759,1.773h-.019A1.644,1.644,0,0,1,3440.293,2046.808Zm252.064-4.936a2.208,2.208,0,0,1-2.238-2.627,2.357,2.357,0,0,1,2.576-2.4c1.49.017,2.208,1.164,2.544,2.365-.341,1.656-1.059,2.671-2.616,2.671C3692.537,2041.881,3692.448,2041.878,3692.357,2041.872Zm842.354-.273a2.287,2.287,0,0,1,.028-4.573,2.237,2.237,0,0,1,2.328,2.3c-.181,1.388-.893,2.271-2.343,2.271Zm-956.044,0a2.287,2.287,0,0,1,.028-4.573,2.237,2.237,0,0,1,2.327,2.3c-.18,1.388-.892,2.271-2.343,2.271Zm274.477-4.82a1.507,1.507,0,0,1-1.564-1.583,1.532,1.532,0,0,1,1.718-1.7,1.579,1.579,0,0,1,1.587,1.6c-.09,1.029-.608,1.682-1.664,1.682Zm621.125-1.533a1.528,1.528,0,0,1,1.425-1.716c.965.047,1.624.5,1.682,1.483a1.463,1.463,0,0,1-1.439,1.692c-.057,0-.112.006-.167.006A1.436,1.436,0,0,1,4474.268,2035.246Zm-956.045,0a1.559,1.559,0,1,1,3.107-.234,1.464,1.464,0,0,1-1.44,1.692c-.057,0-.112.006-.167.006A1.436,1.436,0,0,1,3518.223,2035.246Zm411.3.307a1.924,1.924,0,0,1-1.969-2.226,1.9,1.9,0,0,1,2.018-1.9,2.017,2.017,0,0,1,2.146,2.063c-.167,1.264-.807,2.067-2.038,2.067C3929.633,2035.557,3929.58,2035.556,3929.527,2035.553Zm356.152-8.965a1.227,1.227,0,0,1-1.033-1.447,1.277,1.277,0,0,1,1.555-1.235,1.371,1.371,0,0,1-.116,2.731A1.819,1.819,0,0,1,4285.679,2026.588Zm-956.046,0a1.226,1.226,0,0,1-1.032-1.447,1.276,1.276,0,0,1,1.553-1.235,1.371,1.371,0,0,1-.116,2.731A1.814,1.814,0,0,1,3329.633,2026.588Zm804.383-.217a1.4,1.4,0,0,1-1.5-1.6,1.385,1.385,0,0,1,1.454-1.381,1.44,1.44,0,0,1,1.513,1.575,1.4,1.4,0,0,1-1.419,1.405Zm-956.045,0a1.4,1.4,0,0,1-1.5-1.6,1.384,1.384,0,0,1,1.453-1.381,1.438,1.438,0,0,1,1.512,1.575,1.4,1.4,0,0,1-1.417,1.405Zm1066.066-2.208a1.659,1.659,0,0,1-1.787-1.959,1.633,1.633,0,0,1,1.869-1.6,1.734,1.734,0,0,1,1.693,1.836c-.141,1.02-.691,1.727-1.744,1.727Zm-956.045,0a1.659,1.659,0,0,1-1.787-1.959,1.633,1.633,0,0,1,1.868-1.6,1.735,1.735,0,0,1,1.695,1.836c-.142,1.02-.691,1.727-1.744,1.727Zm873.949-5.033a1.376,1.376,0,0,1,1.529-1.586c.909,0,1.285.632,1.409,1.453-.12.828-.505,1.439-1.412,1.451h-.024A1.361,1.361,0,0,1,4161.942,2019.13Zm-956.044,0a1.376,1.376,0,0,1,1.529-1.586c.908,0,1.286.632,1.409,1.453-.119.828-.506,1.439-1.412,1.451h-.025A1.36,1.36,0,0,1,3205.9,2019.13Zm757.724-1.493a1.392,1.392,0,0,1,.159-2.779,1.391,1.391,0,0,1-.062,2.782Zm467.321-1.853a1.444,1.444,0,0,1,1.438-1.711,1.529,1.529,0,0,1,1.747,1.434c-.037.966-.452,1.641-1.465,1.716-.062,0-.122.007-.18.007A1.452,1.452,0,0,1,4430.942,2015.784Zm-956.046,0a1.445,1.445,0,0,1,1.439-1.711,1.528,1.528,0,0,1,1.746,1.434c-.036.966-.45,1.641-1.465,1.716q-.092.007-.18.007A1.454,1.454,0,0,1,3474.9,2015.784Zm457.6,1.374a1.084,1.084,0,0,1-1.153-1.224,1.107,1.107,0,0,1,1.232-1.157,1.216,1.216,0,0,1,1.19,1.055c-.108.889-.488,1.328-1.191,1.328Zm297.679-3.378a1.622,1.622,0,0,1,3.235-.231,1.522,1.522,0,0,1-1.635,1.812h-.023A1.5,1.5,0,0,1,4230.18,2013.78Zm-956.045,0a1.622,1.622,0,0,1,3.236-.231,1.522,1.522,0,0,1-1.635,1.812h-.023A1.5,1.5,0,0,1,3274.135,2013.78Zm921.964,1.2a1.343,1.343,0,0,1-1.346-1.5,1.419,1.419,0,0,1,1.39-1.492,1.531,1.531,0,0,1,1.673,1.42c-.141,1.027-.645,1.575-1.531,1.575C4196.224,2014.989,4196.162,2014.987,4196.1,2014.982Zm-956.044,0a1.344,1.344,0,0,1-1.347-1.5,1.418,1.418,0,0,1,1.391-1.492,1.532,1.532,0,0,1,1.673,1.42c-.141,1.027-.647,1.575-1.532,1.575Q3240.149,2014.989,3240.054,2014.982Zm639.767-1.972a1.12,1.12,0,0,1,1.351-1.061,1.085,1.085,0,0,1,1.058,1.08c.027.781-.482,1.137-1.184,1.233C3880.3,2014.145,3879.751,2013.8,3879.822,2013.01Zm181.5-3.746a1.463,1.463,0,0,1,1.624-1.532,1.514,1.514,0,0,1,1.607,1.554c-.047.974-.5,1.63-1.5,1.674l-.121,0A1.484,1.484,0,0,1,4061.323,2009.264Zm-413.466.537a1.291,1.291,0,0,1-1.18-1.555,1.351,1.351,0,0,1,1.465-1.288c.83.163,1.392.629,1.365,1.466a1.308,1.308,0,0,1-1.385,1.393A2.155,2.155,0,0,1,3647.858,2009.8Zm104.736-3.012a1.21,1.21,0,0,1-1.292-1.421,1.225,1.225,0,0,1,1.559-1.135,1.249,1.249,0,0,1,1.046,1.282c-.146.811-.552,1.276-1.233,1.276Zm190.293-3.553a1.175,1.175,0,0,1,1.05-1.394,1.329,1.329,0,0,1,1.577.94c.016.963-.309,1.512-1.049,1.635a1.868,1.868,0,0,1-.306.027A1.254,1.254,0,0,1,3942.886,2003.236Zm403.819-.847a1.677,1.677,0,0,1,1.858-1.94c1.089.027,1.654.732,1.771,1.863a1.725,1.725,0,0,1-1.764,1.728l-.115,0A1.627,1.627,0,0,1,4346.706,2002.389Zm-956.044,0a1.676,1.676,0,0,1,1.858-1.94c1.089.027,1.654.732,1.769,1.863a1.723,1.723,0,0,1-1.764,1.728l-.115,0A1.625,1.625,0,0,1,3390.661,2002.389Zm993.622-2.418a1.189,1.189,0,0,1,1.161-1.3,1.262,1.262,0,0,1,1.537,1.213c.059.878-.485,1.344-1.335,1.5A1.317,1.317,0,0,1,4384.283,1999.971Zm-956.045,0a1.189,1.189,0,0,1,1.161-1.3,1.262,1.262,0,0,1,1.537,1.213c.059.878-.484,1.344-1.337,1.5A1.316,1.316,0,0,1,3428.238,1999.971Zm520.749-.343a1.41,1.41,0,0,1,1.161-1.488c1-.006,1.562.4,1.671,1.244a1.3,1.3,0,0,1-1.15,1.586,2.127,2.127,0,0,1-.32.025A1.313,1.313,0,0,1,3948.987,1999.628Zm340.908-2.416a1.589,1.589,0,1,1,3.178-.069c.024,1.017-.623,1.493-1.585,1.651A1.518,1.518,0,0,1,4289.9,1997.212Zm-956.046,0a1.59,1.59,0,1,1,3.179-.069c.024,1.017-.623,1.493-1.585,1.651A1.52,1.52,0,0,1,3333.849,1997.212Zm1167.307,1.347a1.255,1.255,0,0,1-1.348-1.418,1.335,1.335,0,0,1,1.44-1.372c.884.011,1.259.642,1.379,1.411a1.346,1.346,0,0,1-1.411,1.381Zm-956.045,0a1.256,1.256,0,0,1-1.35-1.418,1.337,1.337,0,0,1,1.441-1.372c.885.011,1.261.642,1.38,1.411a1.346,1.346,0,0,1-1.41,1.381Zm183.373-1.748a1.115,1.115,0,0,1-1-1.416,1.1,1.1,0,0,1,1.209-.937,1.124,1.124,0,0,1,1.155,1.262c-.122.709-.51,1.109-1.131,1.109A1.651,1.651,0,0,1,3728.484,1996.81Zm212.146-1.384a1.718,1.718,0,0,1-1.716-2.1,1.809,1.809,0,0,1,1.971-1.62,1.79,1.79,0,0,1,1.71,1.852,1.715,1.715,0,0,1-1.789,1.871Q3940.72,1995.432,3940.63,1995.426Zm-114.156-4.764a1.367,1.367,0,0,1,1.315-1.506,1.4,1.4,0,0,1,1.722,1.367,1.524,1.524,0,1,1-3.038.139Zm378.038-.714a1.194,1.194,0,0,1,2.388.063,1.145,1.145,0,0,1-1.215,1.18C4204.936,1991.1,4204.484,1990.706,4204.512,1989.948Zm-956.045,0a1.195,1.195,0,0,1,2.388.063,1.145,1.145,0,0,1-1.216,1.18C3248.891,1991.1,3248.44,1990.706,3248.467,1989.948Zm1024.234.036a1.253,1.253,0,0,1,1.236-1.521,1.361,1.361,0,1,1,.047,2.713h-.01A1.185,1.185,0,0,1,4272.7,1989.984Zm-956.045,0a1.252,1.252,0,0,1,1.236-1.521,1.361,1.361,0,1,1,.046,2.713h-.009A1.185,1.185,0,0,1,3316.656,1989.984Zm1116.236-5.071a1.157,1.157,0,0,1,1.1-1.3,1.152,1.152,0,1,1,.239,2.275,1.931,1.931,0,0,1-.258.018A.99.99,0,0,1,4432.892,1984.913Zm-956.045,0a1.157,1.157,0,0,1,1.105-1.3,1.152,1.152,0,1,1,.239,2.275,1.931,1.931,0,0,1-.258.018A.991.991,0,0,1,3476.846,1984.913Zm1068.827-5.448a1.594,1.594,0,0,1-1.715-1.75,1.623,1.623,0,0,1,1.753-1.731c1.078.015,1.645.7,1.746,1.793a1.676,1.676,0,0,1-1.749,1.688Zm-956.045,0a1.6,1.6,0,0,1-1.715-1.75,1.624,1.624,0,0,1,1.753-1.731c1.079.015,1.645.7,1.745,1.793a1.676,1.676,0,0,1-1.75,1.688Zm90.508-4.881a1.395,1.395,0,1,1,2.789.06c.01.888-.591,1.285-1.423,1.38C3680.678,1975.891,3680.085,1975.469,3680.136,1974.585Zm187.219,1.4a1.264,1.264,0,0,1-1.276-1.5,1.317,1.317,0,0,1,1.514-1.294c.892.077,1.254.688,1.3,1.562a1.33,1.33,0,0,1-1.361,1.242C3867.474,1975.991,3867.415,1975.988,3867.354,1975.983Zm644.8-1.692a1.167,1.167,0,0,1-1.3-1.387c.083-.719.613-1.089,1.427-1.082a1.164,1.164,0,0,1,1.091,1.266,1.126,1.126,0,0,1-1.2,1.2Zm-956.045,0a1.167,1.167,0,0,1-1.3-1.387c.082-.719.611-1.089,1.425-1.082a1.165,1.165,0,0,1,1.093,1.266,1.126,1.126,0,0,1-1.2,1.2Zm302.929-5.1c-.008-.871.537-1.333,1.411-1.461.934.077,1.58.534,1.565,1.549a1.375,1.375,0,0,1-1.4,1.445l-.105,0A1.384,1.384,0,0,1,3859.042,1969.189Zm356.8-.146a1.058,1.058,0,0,1,1.049-1.069,1.085,1.085,0,0,1,1.28,1.118,1.158,1.158,0,0,1-1.014,1.244C4216.221,1970.23,4215.8,1969.813,4215.84,1969.042Zm-956.045,0a1.058,1.058,0,0,1,1.049-1.069,1.085,1.085,0,0,1,1.28,1.118,1.157,1.157,0,0,1-1.014,1.244C3260.174,1970.23,3259.752,1969.813,3259.8,1969.042Zm906.931.651a1.494,1.494,0,0,1-1.5-1.661,1.629,1.629,0,0,1,1.462-1.61c1.09.116,1.734.617,1.776,1.579a1.487,1.487,0,0,1-1.607,1.7C4166.813,1969.7,4166.769,1969.7,4166.727,1969.693Zm-956.045,0a1.493,1.493,0,0,1-1.5-1.661,1.629,1.629,0,0,1,1.462-1.61c1.09.116,1.735.617,1.774,1.579a1.485,1.485,0,0,1-1.605,1.7C3210.768,1969.7,3210.725,1969.7,3210.681,1969.693Zm896.611-4.626a1.484,1.484,0,0,1,1.55-1.627,1.515,1.515,0,0,1,1.7,1.751c-.053,1-.744,1.433-1.678,1.528A1.6,1.6,0,0,1,4107.292,1965.068Zm-956.045,0a1.484,1.484,0,0,1,1.55-1.627,1.515,1.515,0,0,1,1.7,1.751c-.052,1-.744,1.433-1.677,1.528A1.6,1.6,0,0,1,3151.247,1965.068Zm601.52-2.422a1.3,1.3,0,0,1-1.4-1.365,1.335,1.335,0,0,1,1.572-1.467,1.42,1.42,0,0,1-.134,2.833Zm-43.115-2.333a1.292,1.292,0,1,1,2.574-.223,1.168,1.168,0,0,1-1.155,1.252q-.085.008-.166.008A1.175,1.175,0,0,1,3709.652,1960.312Zm25.461-4.445a1.3,1.3,0,0,1,1.361-1.464,1.4,1.4,0,0,1,1.5,1.347c-.087.867-.514,1.451-1.4,1.487l-.082,0A1.305,1.305,0,0,1,3735.113,1955.867Zm733.356-.461a1.484,1.484,0,0,1,1.72-1.678,1.593,1.593,0,0,1-.092,3.184h-.069A1.452,1.452,0,0,1,4468.469,1955.406Zm-956.045,0a1.484,1.484,0,0,1,1.721-1.678,1.593,1.593,0,0,1-.091,3.184h-.069A1.453,1.453,0,0,1,3512.424,1955.406Zm824.794-2.162a1.13,1.13,0,0,1,1.368-1.066,1.111,1.111,0,0,1,1.067,1.094c.046.813-.508,1.128-1.232,1.229C4337.714,1954.372,4337.133,1954.052,4337.218,1953.245Zm-956.045,0a1.129,1.129,0,0,1,1.366-1.066,1.111,1.111,0,0,1,1.07,1.094c.046.813-.508,1.128-1.232,1.229C3381.669,1954.372,3381.089,1954.052,3381.173,1953.245Zm728.78-1.23a1.541,1.541,0,0,1-1.459-1.692,1.681,1.681,0,1,1,3.354.176,1.531,1.531,0,0,1-1.635,1.53C4110.129,1952.028,4110.042,1952.024,4109.953,1952.015Zm-12.4-2.65a1.641,1.641,0,0,1-1.785-1.729,1.672,1.672,0,0,1,1.923-1.871c1.075.058,1.626.786,1.674,1.946a1.709,1.709,0,0,1-1.787,1.653Zm-211.363-2.154a1.449,1.449,0,0,1,1.669-1.475,1.431,1.431,0,0,1,1.458,1.677,1.548,1.548,0,0,1-1.55,1.528C3886.662,1948.776,3886.149,1948.175,3886.187,1947.21Zm133.515.469a1.779,1.779,0,0,1-1.8-2.013c.053-1.239.893-1.708,1.923-1.868,1.243.221,1.932.88,1.861,2.073a1.722,1.722,0,0,1-1.8,1.814C4019.826,1947.685,4019.765,1947.683,4019.7,1947.679Zm-303.14-5.423a1.438,1.438,0,0,1,1.374-1.733c1.013-.1,1.5.531,1.682,1.46a1.507,1.507,0,0,1-1.553,1.6l-.078,0A1.37,1.37,0,0,1,3716.563,1942.256Zm-21.633.5a1.363,1.363,0,0,1-1.322-1.725,1.336,1.336,0,0,1,1.569-1.211,1.445,1.445,0,0,1,1.358,1.714,1.426,1.426,0,0,1-1.394,1.234A1.82,1.82,0,0,1,3694.93,1942.758Zm497.622-.072a1.347,1.347,0,0,1-1.387-1.657,1.33,1.33,0,0,1,1.571-1.19,1.365,1.365,0,0,1,1.275,1.492c-.13.812-.563,1.36-1.341,1.36C4192.631,1942.69,4192.591,1942.689,4192.552,1942.686Zm-956.046,0a1.346,1.346,0,0,1-1.385-1.657,1.33,1.33,0,0,1,1.572-1.19,1.364,1.364,0,0,1,1.275,1.492c-.129.812-.565,1.36-1.343,1.36C3236.585,1942.69,3236.546,1942.689,3236.506,1942.686Zm1058.674-2.711a1.3,1.3,0,0,1,1.442-1.37,1.45,1.45,0,0,1,.123,2.9c-.065.005-.127.008-.188.008A1.327,1.327,0,0,1,4295.179,1939.975Zm-956.046,0a1.3,1.3,0,0,1,1.443-1.37,1.45,1.45,0,0,1,.122,2.9c-.064.005-.126.008-.187.008A1.329,1.329,0,0,1,3339.133,1939.975Zm665.994,1.47a1.125,1.125,0,0,1-.934-1.461c.166-.72.618-1.18,1.42-.926a1.378,1.378,0,0,1,1.033,1.468,1.253,1.253,0,0,1-1.18.959A1.551,1.551,0,0,1,4005.127,1941.445Zm-326.4-8.289a1.173,1.173,0,0,1,1.2-1.266,1.2,1.2,0,0,1,1.423,1.312,1.318,1.318,0,0,1-.987,1.315C3679.288,1934.488,3678.755,1934.035,3678.731,1933.156Zm729.217-.478a1.141,1.141,0,0,1,1.128-1.321,1.172,1.172,0,0,1,1.378,1.346,1.241,1.241,0,0,1-1.136,1.235C4408.417,1933.862,4407.991,1933.422,4407.948,1932.678Zm-956.045,0a1.141,1.141,0,0,1,1.128-1.321,1.173,1.173,0,0,1,1.379,1.346,1.241,1.241,0,0,1-1.136,1.235C3452.373,1933.862,3451.947,1933.422,3451.9,1932.678Zm1051.9-1.5a1.3,1.3,0,0,1,1.476-1.537,1.281,1.281,0,0,1,1.355,1.406,1.418,1.418,0,0,1-2.832.131Zm-956.044,0a1.3,1.3,0,0,1,1.476-1.537,1.281,1.281,0,0,1,1.356,1.406,1.418,1.418,0,0,1-2.832.131Zm252.917-.749a1.39,1.39,0,0,1,1.6-1.475,1.343,1.343,0,0,1,1.415,1.376,1.49,1.49,0,0,1-1.338,1.665C3801.261,1931.921,3800.683,1931.378,3800.673,1930.426Zm161.972-2.959A1.2,1.2,0,0,1,3964,1926.1c.75.032,1.122.53,1.181,1.3a1.2,1.2,0,0,1-1.235,1.184h-.043A1.118,1.118,0,0,1,3962.645,1927.467Zm597.5-.348a1.241,1.241,0,0,1,1.178-1.5c.869.024,1.474.4,1.493,1.277a1.265,1.265,0,0,1-1.366,1.384h-.006A1.237,1.237,0,0,1,4560.143,1927.119Zm-956.044,0a1.241,1.241,0,0,1,1.179-1.5c.867.024,1.474.4,1.493,1.277a1.265,1.265,0,0,1-1.366,1.384h-.006A1.236,1.236,0,0,1,3604.1,1927.119Zm855.021-2.479a1.444,1.444,0,0,1,1.4-1.692c.982.1,1.576.6,1.543,1.6a1.367,1.367,0,0,1-1.443,1.378l-.108,0A1.3,1.3,0,0,1,4459.12,1924.639Zm-956.044,0a1.442,1.442,0,0,1,1.4-1.692c.982.1,1.577.6,1.542,1.6a1.366,1.366,0,0,1-1.442,1.378l-.108,0A1.3,1.3,0,0,1,3503.075,1924.639Zm671.113-2.344a2.1,2.1,0,0,1,1.932-2.241,2.127,2.127,0,0,1,2.364,2,1.972,1.972,0,0,1-1.886,2.325c-.107.01-.213.015-.315.015A1.964,1.964,0,0,1,4174.188,1922.3Zm-956.044,0a2.1,2.1,0,0,1,1.932-2.241,2.128,2.128,0,0,1,2.364,2,1.974,1.974,0,0,1-1.886,2.325c-.107.01-.212.015-.315.015A1.963,1.963,0,0,1,3218.144,1922.3Zm889.411-1.8a1.645,1.645,0,1,1,.422-3.262,1.575,1.575,0,0,1,1.457,1.742,1.612,1.612,0,0,1-1.62,1.535A2.277,2.277,0,0,1,4107.555,1920.5Zm120.571-.335a1.235,1.235,0,0,1-1.234-1.223,1.255,1.255,0,0,1,1.292-1.439c.879-.055,1.275.545,1.375,1.342-.114.813-.5,1.326-1.295,1.326C4228.22,1920.168,4228.174,1920.166,4228.126,1920.162Zm-956.044,0a1.236,1.236,0,0,1-1.235-1.223,1.255,1.255,0,0,1,1.291-1.439c.881-.055,1.275.545,1.376,1.342-.114.813-.5,1.326-1.3,1.326C3272.175,1920.168,3272.129,1920.166,3272.082,1920.162Zm1066.722-2.5c0-.843.562-1.3,1.391-1.416a1.391,1.391,0,0,1,1.437,1.358,1.261,1.261,0,0,1-1.233,1.495c-.068.006-.133.008-.2.008A1.309,1.309,0,0,1,4338.8,1917.662Zm-956.046,0c0-.843.563-1.3,1.391-1.416a1.392,1.392,0,0,1,1.437,1.358,1.26,1.26,0,0,1-1.232,1.495c-.068.006-.133.008-.2.008A1.31,1.31,0,0,1,3382.758,1917.662Zm337.083-1.588a1.461,1.461,0,0,1-1.523-1.607,1.44,1.44,0,0,1,1.513-1.412,1.41,1.41,0,0,1,1.5,1.642,1.388,1.388,0,0,1-1.453,1.378Zm691.449-1.429a1.174,1.174,0,0,1,1.044-1.381,1.3,1.3,0,0,1,1.589,1.093c-.028.926-.479,1.444-1.35,1.463h-.036A1.189,1.189,0,0,1,4411.29,1914.645Zm-956.044,0a1.174,1.174,0,0,1,1.044-1.381,1.3,1.3,0,0,1,1.589,1.093c-.028.926-.481,1.444-1.351,1.463h-.036A1.188,1.188,0,0,1,3455.246,1914.645Zm608.705-.085a1.112,1.112,0,0,1,1.172-1.227,1.249,1.249,0,0,1,1.324,1.027c-.06.835-.478,1.278-1.205,1.31l-.076,0A1.118,1.118,0,0,1,4063.951,1914.56Zm-308.979-2.892a1.225,1.225,0,0,1,2.45-.064c.025.777-.445,1.173-1.194,1.277A1.187,1.187,0,0,1,3754.972,1911.667Zm184.454-1.865a1.462,1.462,0,0,1,1.334-1.8c.977-.14,1.556.452,1.768,1.422a1.554,1.554,0,0,1-1.522,1.658c-.044,0-.088,0-.131,0A1.407,1.407,0,0,1,3939.426,1909.8Zm-31.692.836a1.5,1.5,0,0,1-1.552-1.6,1.53,1.53,0,0,1,1.738-1.686,1.58,1.58,0,0,1,1.583,1.6,1.6,1.6,0,0,1-1.676,1.682Zm388.9-1.483a1.369,1.369,0,0,1-1.469-1.362,1.442,1.442,0,0,1,1.424-1.7c1.017-.072,1.458.6,1.643,1.391-.062,1.126-.642,1.666-1.585,1.666Zm-956.045,0a1.37,1.37,0,0,1-1.47-1.362,1.443,1.443,0,0,1,1.425-1.7c1.017-.072,1.458.6,1.643,1.391-.061,1.126-.643,1.666-1.585,1.666Zm497.275-3.187a1.214,1.214,0,0,1,1.167-1.335c.912-.067,1.342.5,1.515,1.29a1.276,1.276,0,0,1-1.222,1.333c-.066.006-.132.009-.195.009A1.17,1.17,0,0,1,3837.862,1905.968Zm345.011-1.953a1.6,1.6,0,0,1-1.677-1.566c-.106-1.124.568-1.711,1.635-1.912,1.07.1,1.816.6,1.813,1.732a1.609,1.609,0,0,1-1.756,1.746Zm-956.045,0a1.6,1.6,0,0,1-1.677-1.566c-.106-1.124.569-1.711,1.635-1.912,1.07.1,1.817.6,1.813,1.732a1.609,1.609,0,0,1-1.756,1.746Zm408.782-1.674a1.236,1.236,0,0,1,1.292-1.193,1.277,1.277,0,0,1,1.4,1.383c-.01.869-.583,1.3-1.488,1.33A1.291,1.291,0,0,1,3635.61,1902.342Zm419.149.238c.022-.645.408-1,1.109-1.066a1.069,1.069,0,0,1,1.133,1.217,1.006,1.006,0,0,1-1.058,1.044h-.065A1.027,1.027,0,0,1,4054.759,1902.579Zm514.992-2.106a1.155,1.155,0,0,1,1.266-1.172,1.126,1.126,0,0,1,1.082,1.365,1.076,1.076,0,0,1-1.136,1.01h-.028A1.064,1.064,0,0,1,4569.751,1900.474Zm-956.045,0a1.155,1.155,0,0,1,1.267-1.172,1.127,1.127,0,0,1,1.082,1.365,1.076,1.076,0,0,1-1.136,1.01h-.027A1.064,1.064,0,0,1,3613.706,1900.474Zm395.8-.752a1.481,1.481,0,0,1,1.71-1.677,1.6,1.6,0,0,1-.1,3.19h-.042A1.447,1.447,0,0,1,4009.5,1899.722Zm-244.228-.452a1.277,1.277,0,0,1,1.5-1.243,1.336,1.336,0,0,1,1.347,1.42,1.386,1.386,0,0,1-1.4,1.406h-.026A1.332,1.332,0,0,1,3765.274,1899.269Zm11.969-.446c-.036-.793.57-1.153,1.263-1.167a1.209,1.209,0,0,1,1.275,1.2c-.062.7-.317,1.3-1.106,1.326h-.055A1.305,1.305,0,0,1,3777.243,1898.824Zm77.913-1.675c-.859-.05-1.409-.562-1.26-1.436a1.211,1.211,0,0,1,1.443-.973,1.128,1.128,0,0,1,1.118,1.255,1.151,1.151,0,0,1-1.2,1.157Zm223.763-2.967a1.359,1.359,0,0,1,1.575-1.506c.869.061,1.251.685,1.324,1.53a1.382,1.382,0,0,1-1.472,1.34A1.29,1.29,0,0,1,4078.919,1894.181Zm-107.352-.164a1.352,1.352,0,0,1-1.339-1.487c.023-.9.594-1.3,1.439-1.332.873.124,1.417.608,1.36,1.475a1.3,1.3,0,0,1-1.32,1.35C3971.662,1894.023,3971.615,1894.021,3971.567,1894.017Zm-206.5-1.457a1.472,1.472,0,0,1,1.182-1.737c1.139.059,1.738.557,1.738,1.541a1.361,1.361,0,0,1-1.385,1.424c-.061.005-.12.008-.178.008A1.291,1.291,0,0,1,3765.07,1892.56Zm488.684-.268a1.349,1.349,0,0,1,1.415-1.408c.868-.041,1.338.5,1.48,1.361-.027.821-.381,1.438-1.267,1.5q-.09.006-.176.006A1.345,1.345,0,0,1,4253.753,1892.292Zm-956.046,0a1.351,1.351,0,0,1,1.416-1.408c.867-.041,1.337.5,1.48,1.361-.027.821-.381,1.438-1.269,1.5-.06,0-.118.006-.175.006A1.347,1.347,0,0,1,3297.708,1892.292Zm352.438.6a1.269,1.269,0,1,1,.161-2.528c.767.066,1.075.615,1.111,1.348-.111.7-.476,1.182-1.184,1.182Zm773.636-.876a1.164,1.164,0,0,1-1.19-1.243c.11-.76.509-1.227,1.284-1.186a1.216,1.216,0,0,1-.016,2.431Zm-956.045,0a1.165,1.165,0,0,1-1.19-1.243c.111-.76.507-1.227,1.283-1.186a1.216,1.216,0,0,1-.015,2.431Zm574.712-5.28a1.19,1.19,0,0,1,1.033-1.4,1.309,1.309,0,1,1,.249,2.584h-.062A1.191,1.191,0,0,1,4042.448,1886.738Zm-229.508-.052a1.442,1.442,0,0,1-1.574-1.579,1.509,1.509,0,0,1,1.653-1.538,1.526,1.526,0,0,1,1.4,1.746,1.376,1.376,0,0,1-1.436,1.372Zm56.071-3.581a1.477,1.477,0,0,1,1.5-1.646c.971-.055,1.5.553,1.67,1.514a1.532,1.532,0,0,1-1.525,1.616l-.109,0A1.436,1.436,0,0,1,3869.01,1883.1Zm594.42-2.216a1.458,1.458,0,0,1,1.635-1.5,1.591,1.591,0,0,1,.088,3.181c-.059,0-.116.006-.172.006A1.463,1.463,0,0,1,4463.431,1880.889Zm-956.044,0a1.456,1.456,0,0,1,1.633-1.5,1.591,1.591,0,0,1,.09,3.181c-.058,0-.116.006-.172.006A1.461,1.461,0,0,1,3507.387,1880.889Zm559.927-.286a1.491,1.491,0,0,1,.264-2.969,1.41,1.41,0,0,1,1.377,1.493c-.125.882-.567,1.484-1.466,1.484C4067.432,1880.61,4067.374,1880.607,4067.313,1880.6Zm322.52-3.407c.111-.9.5-1.507,1.392-1.494a1.322,1.322,0,0,1,1.434,1.369,1.342,1.342,0,0,1-1.393,1.421l-.1,0C4390.332,1878.493,4389.982,1877.9,4389.833,1877.2Zm-956.044,0c.111-.9.494-1.507,1.389-1.494a1.321,1.321,0,0,1,1.434,1.369,1.34,1.34,0,0,1-1.39,1.421l-.1,0C3434.288,1878.493,3433.936,1877.9,3433.789,1877.2Zm244.183-.85a1.157,1.157,0,0,1,1.374-1.044,1.286,1.286,0,0,1,1.176,1.568,1.26,1.26,0,0,1-1.351,1.054C3678.292,1877.707,3677.793,1877.241,3677.972,1876.345Zm727.746-.677a1.761,1.761,0,0,1-.14-2.687,1.473,1.473,0,0,1,1.763-.451,2.04,2.04,0,0,1,1.174,2.5,3.817,3.817,0,0,1-2.235.667A5.382,5.382,0,0,1,4405.718,1875.668Zm-956.046,0a1.762,1.762,0,0,1-.139-2.687,1.472,1.472,0,0,1,1.763-.451,2.036,2.036,0,0,1,1.172,2.5,3.813,3.813,0,0,1-2.233.667A5.391,5.391,0,0,1,3449.672,1875.668Zm196.6-2.178a1.319,1.319,0,0,1,2.623-.277c.081.891-.453,1.353-1.316,1.456A1.235,1.235,0,0,1,3646.27,1873.49Zm67.864-2.26a1.657,1.657,0,1,1,3.3-.125c-.014.976-.642,1.477-1.6,1.6A1.592,1.592,0,0,1,3714.133,1871.23Zm836.419-.11h0c-1.175-1.51-.047-2.19,1.091-2.645a1.712,1.712,0,0,1,2.279,1.071,1.825,1.825,0,0,1-.855,2.609,2.943,2.943,0,0,1-1.183.31C4551.266,1872.463,4550.753,1872.116,4550.552,1871.12Zm-956.045,0h0c-1.174-1.51-.049-2.19,1.09-2.645a1.714,1.714,0,0,1,2.28,1.071,1.825,1.825,0,0,1-.855,2.609,2.942,2.942,0,0,1-1.182.31C3595.221,1872.463,3594.708,1872.116,3594.508,1871.12Zm780.12-2.226a1.382,1.382,0,0,1,1.311-1.5,1.4,1.4,0,0,1,1.7,1.37c.087.975-.493,1.515-1.443,1.68A1.491,1.491,0,0,1,4374.628,1868.894Zm-956.045,0a1.381,1.381,0,0,1,1.311-1.5,1.4,1.4,0,0,1,1.7,1.37c.087.975-.493,1.515-1.443,1.68A1.491,1.491,0,0,1,3418.583,1868.894Zm828.349-1.616a1.414,1.414,0,0,1,2.824-.163,1.381,1.381,0,0,1-1.3,1.527C4247.6,1868.552,4246.986,1868.174,4246.933,1867.278Zm-956.046,0a1.415,1.415,0,0,1,2.825-.163,1.382,1.382,0,0,1-1.3,1.527C3291.557,1868.552,3290.942,1868.174,3290.887,1867.278Zm574.681-.062a1.147,1.147,0,0,1,1.27-1.161,1.187,1.187,0,0,1,1.27,1.149c-.087.731-.412,1.286-1.162,1.333-.043,0-.085,0-.125,0A1.165,1.165,0,0,1,3865.568,1867.216Zm303.942-3.314c0-1.123.783-1.559,1.659-1.746,1.171.126,1.855.668,1.877,1.751a1.631,1.631,0,0,1-1.631,1.844c-.045,0-.09,0-.134,0A1.652,1.652,0,0,1,4169.51,1863.9Zm-956.045,0c0-1.123.782-1.559,1.66-1.746,1.171.126,1.855.668,1.877,1.751a1.633,1.633,0,0,1-1.633,1.844c-.045,0-.09,0-.133,0A1.651,1.651,0,0,1,3213.465,1863.9Zm1125.026,1.842a1.316,1.316,0,0,1-1.444-1.371,1.368,1.368,0,0,1,1.578-1.515,1.446,1.446,0,0,1-.125,2.886Zm-956.045,0a1.317,1.317,0,0,1-1.445-1.371,1.37,1.37,0,0,1,1.58-1.515,1.446,1.446,0,0,1-.125,2.886Zm997.5-2.815a1.427,1.427,0,0,1,1.5-1.652,1.468,1.468,0,0,1,1.537,1.3c-.059,1.025-.5,1.687-1.528,1.713h-.048A1.373,1.373,0,0,1,4379.941,1862.929Zm-956.044,0a1.425,1.425,0,0,1,1.5-1.652,1.466,1.466,0,0,1,1.536,1.3c-.059,1.025-.5,1.687-1.527,1.713h-.049A1.373,1.373,0,0,1,3423.9,1862.929Zm379.75-.585c-.069-1.026.563-1.536,1.531-1.522a1.259,1.259,0,0,1,1.32,1.439,1.38,1.38,0,0,1-1.357,1.437A1.416,1.416,0,0,1,3803.647,1862.344Zm21.541-1.729a1.5,1.5,0,0,1,2.986-.108,1.392,1.392,0,0,1-1.436,1.679c-.04,0-.078,0-.116,0A1.373,1.373,0,0,1,3825.188,1860.614Zm750.252-.429a1.484,1.484,0,0,1,1.589-1.6,1.516,1.516,0,0,1,1.679,1.783,1.65,1.65,0,0,1-1.573,1.532C4576,1861.734,4575.437,1861.151,4575.44,1860.185Zm-956.043,0a1.482,1.482,0,0,1,1.588-1.6,1.517,1.517,0,0,1,1.679,1.783,1.653,1.653,0,0,1-1.573,1.532C3619.958,1861.734,3619.392,1861.151,3619.4,1860.185Zm436.572,1.1a1.378,1.378,0,0,1-1.363-1.489,1.448,1.448,0,0,1,1.56-1.6,1.548,1.548,0,0,1,1.556,1.529c-.165,1.048-.7,1.57-1.567,1.57C4056.092,1861.3,4056.031,1861.293,4055.968,1861.288Zm-81.8-3.152a1.511,1.511,0,0,1,1.372-1.694c1.083.067,1.637.6,1.666,1.58a1.355,1.355,0,0,1-1.324,1.5,2.408,2.408,0,0,1-.246.013A1.37,1.37,0,0,1,3974.169,1858.136Zm-196.876-.008a1.273,1.273,0,0,1,1.41-1.36,1.221,1.221,0,0,1,1.27,1.2,1.3,1.3,0,0,1-1.055,1.5C3777.864,1859.427,3777.29,1859.01,3777.293,1858.129Zm499.2-.628a1.338,1.338,0,0,1,1.482-1.587c.875.017,1.3.61,1.431,1.431a1.46,1.46,0,0,1-1.41,1.45c-.044,0-.087,0-.13,0A1.291,1.291,0,0,1,4276.491,1857.5Zm-956.045,0a1.337,1.337,0,0,1,1.482-1.587c.874.017,1.294.61,1.429,1.431a1.458,1.458,0,0,1-1.409,1.45c-.044,0-.086,0-.129,0A1.291,1.291,0,0,1,3320.447,1857.5Zm631.929.65a1.317,1.317,0,0,1-1.258-1.5,1.385,1.385,0,0,1,1.445-1.347c.836.1,1.4.559,1.393,1.4a1.312,1.312,0,0,1-1.375,1.459C3952.514,1858.161,3952.445,1858.157,3952.375,1858.151Zm302.2-1.345a1.472,1.472,0,0,1,1.367-1.754c.973.055,1.655.476,1.681,1.5a1.44,1.44,0,0,1-1.538,1.61h-.045A1.409,1.409,0,0,1,4254.575,1856.805Zm-956.045,0a1.472,1.472,0,0,1,1.367-1.754c.974.055,1.655.476,1.681,1.5a1.439,1.439,0,0,1-1.538,1.61H3300A1.408,1.408,0,0,1,3298.53,1856.805Zm1245.375.75a1.136,1.136,0,0,1-1.164-1.25,1.162,1.162,0,0,1,1.467-1.19,1.308,1.308,0,0,1,1.068,1.3,1.222,1.222,0,0,1-1.257,1.141C4543.982,1857.558,4543.944,1857.558,4543.9,1857.555Zm-956.045,0a1.138,1.138,0,0,1-1.165-1.25,1.164,1.164,0,0,1,1.469-1.19,1.306,1.306,0,0,1,1.067,1.3,1.222,1.222,0,0,1-1.256,1.141C3587.938,1857.558,3587.9,1857.558,3587.86,1857.555Zm543.385-2.374a1.475,1.475,0,0,1-1.5-1.653,1.452,1.452,0,0,1,1.648-1.492,1.556,1.556,0,0,1,1.529,1.635c-.159.922-.651,1.514-1.549,1.514C4131.332,1855.185,4131.289,1855.184,4131.245,1855.181Zm-956.045,0a1.474,1.474,0,0,1-1.5-1.653,1.451,1.451,0,0,1,1.647-1.492,1.556,1.556,0,0,1,1.531,1.635c-.158.922-.653,1.514-1.55,1.514C3175.287,1855.185,3175.244,1855.184,3175.2,1855.181Zm774.155-1.989a1.073,1.073,0,0,1-1.093-1.054,1.1,1.1,0,0,1,1.124-1.3c.793-.038,1.169.447,1.249,1.183-.07.759-.459,1.179-1.169,1.179C3949.429,1853.2,3949.392,1853.195,3949.354,1853.193Zm348.01-6.193c.023-1.115.753-1.6,1.808-1.718a1.741,1.741,0,0,1,1.743,1.774,1.64,1.64,0,0,1-1.667,1.826h-.089A1.657,1.657,0,0,1,4297.364,1847Zm-956.046,0c.023-1.115.755-1.6,1.808-1.718a1.738,1.738,0,0,1,1.742,1.774,1.638,1.638,0,0,1-1.665,1.826h-.089A1.659,1.659,0,0,1,3341.318,1847Zm1111.9,1.5a1.162,1.162,0,0,1-1.158-1.276,1.209,1.209,0,0,1,1.192-1.256c.806.177,1.363.63,1.31,1.491a1.077,1.077,0,0,1-1.194,1.047C4453.315,1848.5,4453.266,1848.5,4453.216,1848.5Zm-956.046,0a1.162,1.162,0,0,1-1.157-1.276,1.209,1.209,0,0,1,1.192-1.256c.806.177,1.362.63,1.311,1.491a1.078,1.078,0,0,1-1.2,1.047C3497.27,1848.5,3497.22,1848.5,3497.17,1848.5Zm1007.146-1.27a1.906,1.906,0,0,1,.187-3.808,1.84,1.84,0,0,1,1.847,1.937c-.174,1.178-.8,1.874-1.9,1.874C4504.4,1847.232,4504.359,1847.231,4504.315,1847.229Zm-956.047,0a1.906,1.906,0,0,1,.188-3.808,1.84,1.84,0,0,1,1.848,1.937c-.174,1.178-.8,1.874-1.905,1.874C3548.357,1847.232,3548.313,1847.231,3548.269,1847.229Zm173.544-1.885a1.734,1.734,0,1,1,3.467-.068,1.583,1.583,0,0,1-1.7,1.761h-.048A1.585,1.585,0,0,1,3721.813,1845.344Zm178.8.423a1.5,1.5,0,0,1-1.551-1.6,1.528,1.528,0,0,1,1.737-1.686,1.581,1.581,0,0,1,1.583,1.6,1.6,1.6,0,0,1-1.677,1.681Zm-261.13-2.795a1.228,1.228,0,0,1,2.455-.072,1.224,1.224,0,0,1-1.054,1.294C3639.98,1844.136,3639.513,1843.737,3639.483,1842.972Zm365.664-.513a1.385,1.385,0,0,1,1.345-1.483,1.444,1.444,0,0,1,1.708,1.379c-.032.986-.507,1.633-1.489,1.662h-.065A1.426,1.426,0,0,1,4005.147,1842.458Zm9.056-1.4a1.564,1.564,0,0,1,1.405-1.674c1.127-.005,1.761.514,1.865,1.47a1.509,1.509,0,0,1-1.388,1.795,2.569,2.569,0,0,1-.272.015A1.517,1.517,0,0,1,4014.2,1841.063Zm11.625.475a1.369,1.369,0,0,1-1.493-1.564,1.355,1.355,0,0,1,1.424-1.373,1.421,1.421,0,0,1,1.511,1.533,1.394,1.394,0,0,1-1.436,1.4Zm368.636-3.686a1.423,1.423,0,1,1,.025-2.841c.885.03,1.264.617,1.37,1.431-.12.81-.519,1.411-1.385,1.411Zm-956.044,0a1.423,1.423,0,1,1,.024-2.841c.886.03,1.265.617,1.371,1.431-.12.81-.519,1.411-1.384,1.411Zm735.632-3.8a1.557,1.557,0,1,1,3.111.149,1.535,1.535,0,0,1-1.522,1.537C4174.561,1835.59,4174.027,1835.026,4174.052,1834.056Zm-956.045,0a1.558,1.558,0,1,1,3.112.149,1.536,1.536,0,0,1-1.524,1.537C3218.515,1835.59,3217.982,1835.026,3218.007,1834.056Zm1053.186-2.446c-.948-.069-1.156-.81-1.215-1.61h2.817c-.208.817-.48,1.615-1.464,1.615C4271.286,1831.615,4271.24,1831.613,4271.193,1831.61Zm-956.044,0c-.95-.069-1.157-.81-1.216-1.61h2.816c-.208.817-.48,1.615-1.463,1.615C3315.242,1831.615,3315.2,1831.613,3315.148,1831.61Zm935.74-.054A1.259,1.259,0,0,1,4249.7,1830h2.817c-.212.805-.52,1.564-1.451,1.564C4251.006,1831.564,4250.948,1831.561,4250.888,1831.556Zm-956.045,0a1.259,1.259,0,0,1-1.192-1.556h2.816c-.211.805-.52,1.564-1.451,1.564C3294.961,1831.564,3294.9,1831.561,3294.843,1831.556Z" transform="translate(-3140.499 -1829.5)"/></svg>