<?xml version="1.0" encoding="UTF-8" standalone="no"?>
<!DOCTYPE svg PUBLIC "-//W3C//DTD SVG 1.1//EN" "http://www.w3.org/Graphics/SVG/1.1/DTD/svg11.dtd">
<svg version="1.1" xmlns="http://www.w3.org/2000/svg" xmlns:xlink="http://www.w3.org/1999/xlink" preserveAspectRatio="xMidYMid meet" viewBox="0 0 640 640" width="640" height="640"><defs><path d="M189.25 145.72C189.25 218.11 130.55 276.88 58.25 276.88C-14.05 276.88 -72.75 218.11 -72.75 145.72C-72.75 73.34 -14.05 14.57 58.25 14.57C130.55 14.57 189.25 73.34 189.25 145.72Z" id="cbCTP71pI"></path><path d="M476.28 276.7C476.28 394.25 380.83 489.7 263.28 489.7C145.72 489.7 50.28 394.25 50.28 276.7C50.28 159.14 145.72 63.7 263.28 63.7C380.83 63.7 476.28 159.14 476.28 276.7Z" id="b3GvdKlDx"></path><path d="M578.52 318.33C578.52 390.72 519.82 449.49 447.52 449.49C375.22 449.49 316.52 390.72 316.52 318.33C316.52 245.94 375.22 187.17 447.52 187.17C519.82 187.17 578.52 245.94 578.52 318.33Z" id="c1uPZA2isa"></path><path d="M633.45 332.39C633.45 377.19 597.15 413.55 552.45 413.55C507.74 413.55 471.45 377.19 471.45 332.39C471.45 287.6 507.74 251.23 552.45 251.23C597.15 251.23 633.45 287.6 633.45 332.39Z" id="as4RlFLRC"></path></defs><g><g><g><use xlink:href="#cbCTP71pI" opacity="1" fill="#19181f" fill-opacity="1"></use></g><g><use xlink:href="#b3GvdKlDx" opacity="1" fill="#19181f" fill-opacity="1"></use></g><g><use xlink:href="#c1uPZA2isa" opacity="1" fill="#19181f" fill-opacity="1"></use></g><g><use xlink:href="#as4RlFLRC" opacity="1" fill="#19181f" fill-opacity="1"></use></g></g></g></svg>
